<?xml version="1.0" encoding="UTF-8" standalone="no"?>
<svg width="200.17828mm" height="234.19mm" viewBox="0 0 200.17828 234.19" version="1.1" id="svg1" xml:space="preserve"
  xmlns="http://www.w3.org/2000/svg"
  xmlns:svg="http://www.w3.org/2000/svg">
  <defs id="defs1" />
  <g iid="layer1" transform="translate(-13.033489,-34.431228)">
    <g stroke-width="2" fill="none" stroke-linecap="butt" id="g7" transform="matrix(0.26458333,0,0,0.26458333,-24.341305,-0.3758869)">
      <path stroke="#848384" vector-effect="non-scaling-stroke" d="m 591.2,310.04 q -0.49,0.13 -1.21,0.06 C 522.62,303.59 454.01,268.48 415.65,211.34 q -4.79,-7.13 -6.61,-11.89 -2.15,-5.65 3.61,-7.1 36.67,-9.26 72.85,-11.36 c 149.47,-8.69 287.33,89.48 333.85,231.43 q 15.09,46.04 16.24,94.35 0.23,9.76 -0.43,19.97 -7.4,113.68 -80.64,201.09 -7.54,9.01 -10.22,12.7 c -9.57,13.17 7.18,29.71 19.76,18.79 q 5.43,-4.72 12.82,-13.45 C 827.43,686.12 856.56,613.61 863.09,535.72 870.99,441.45 834.07,342.65 770.86,273.01 726.64,224.3 670.99,188.84 607.97,168.15 563.11,153.42 513.76,148.99 467.49,154.39 300.07,173.92 167.73,314.16 153.04,480.71 c -10.49,118.9 41.17,235.71 132.76,311 q 31.21,25.65 67.47,43.12 a 0.31,0.31 0 0 0 0.44,-0.35 q -6.83,-30.18 -16.55,-59.32 c -1.57,-4.71 -1.63,-9.18 -5.3,-12.98 q -8.22,-8.53 -16.01,-18.77 -34.1,-44.81 -53.03,-97.21 C 251.2,614.02 245.69,579.99 245.7,545.75 c 0,-4.06 0.06,-7.06 2.93,-9.45 3.48,-2.89 8.09,-0.42 8.82,3.71 q 5.14,29.17 11.82,51.73 c 19.98,67.49 54.68,132.24 106.36,180.86 q 31.34,29.48 70.25,45.16 28.13,11.33 58.5,11.7 2.7,0.03 5.05,0.04 a 1.26,1.25 -89.8 0 0 1.26,-1.26 q 0.05,-27.59 0.08,-54.75 c 0.01,-11.56 -9.77,-18.75 -19.19,-23.55 -18.39,-9.39 -34.71,-19.13 -46.56,-36.62 q -0.32,-0.47 0.14,-0.8 l 0.22,-0.15 a 0.41,0.41 0 0 1 0.53,0.06 c 15.03,16.38 44.84,18.74 65.18,17.63 13.22,-0.72 25.82,-3.2 37.29,-9.74 q 4.52,-2.59 6.29,-5.15 c 1.27,-1.84 3.02,-6.45 -0.42,-7.43 q -2.97,-0.85 -5.49,-1.25 c -17.28,-2.8 -35.49,-8.25 -52.51,-8.25 q -32.75,0.01 -65.49,-0.15 c -5.38,-0.03 -14.66,-0.78 -15.6,-7.56 a 2.55,2.54 78.6 0 1 1.86,-2.81 c 8.88,-2.37 13.85,-5.94 23.67,-12.29 q 8.19,-5.3 16.36,-10.61 c 7.11,-4.61 15.06,-9.32 22.45,-10.36 7.96,-1.12 12.44,3.4 18.16,7.91 3.41,2.68 7.72,2.44 11.09,-0.33 4.43,-3.62 7.34,-7.09 13.53,-7.4 3.96,-0.19 9.96,2 13.19,4.12 q 23.51,15.47 34.41,21.61 8.63,4.87 15.63,7.3 4.84,1.68 0.76,-1.42 -17.81,-13.54 -37.4,-25.03 -13.78,-8.08 -27.61,-16.07 c -16.3,-9.41 -29.32,-18.61 -41.61,-31.89 a 2.46,2.44 62 0 0 -2.35,-0.73 c -15.1,3.48 -27.04,-16.69 -15.4,-27.88 q 6.01,-5.78 13.78,-4.86 c 4.9,0.57 8.69,3.47 12.67,6.59 5.15,4.05 16.47,7.05 20.81,0.09 q 1.33,-2.14 1.39,-6.19 c 0.63,-48.32 0.17,-96.7 0.23,-145.03 0.03,-31.92 10.26,-61.5 33.77,-83.69 30.2,-28.48 73.15,-33.32 112.46,-26.43 29.54,5.18 59.18,15.95 84.41,32.19 q 5.31,3.41 10.9,7.09 a 1.11,1.11 0 0 0 1.71,-0.86 q 0.12,-2.04 -1.17,-4.44 c -12.89,-23.9 -36.1,-41.59 -60.78,-51.95 -20.46,-8.58 -41.49,-13.35 -63.76,-17.78 -17.24,-3.43 -31.34,-6.78 -46.81,-11.37 q -49.03,-14.54 -90.68,-44.13 -18.4,-13.07 -35.06,-28.28 c -1.69,-1.54 -3.55,-4.05 -5.6,-5.83 q -0.71,-0.62 -0.38,0.26 c 4.62,12.46 16,25.69 25.64,35.29 q 22.41,22.29 49.18,39.12 c 21.31,13.4 43.85,24.29 66.65,34.89 a 0.38,0.38 0 0 1 -0.06,0.71" id="path1" />
      <path stroke="#848384" vector-effect="non-scaling-stroke" d="m 718.49,410.83 c -37.31,-47.81 -120.2,-62.68 -149.09,4.24 q -0.31,0.72 0.2,0.13 c 11.81,-13.65 25.45,-23.79 43.6,-29.06 38.3,-11.1 72.46,6.16 104.54,25.53 q 2.66,1.61 0.75,-0.84" id="path2" />
      <path stroke="#848384" vector-effect="non-scaling-stroke" d="m 682.81,415.31 c -20.9,-15.7 -50.73,-19.89 -75.07,-10.83 q -17.25,6.42 -31.66,21.1 -4.47,4.55 -8.93,9.13 -0.42,0.43 0.18,0.51 15.83,2.33 27.13,5.4 c 25.13,6.81 48.89,11.93 71.44,-5.21 q 8.47,-6.44 17.07,-12.66 c 3.15,-2.28 2.84,-5.19 -0.16,-7.44" id="path3" />
      <path stroke="#848384" vector-effect="non-scaling-stroke" d="m 738.2,444.35 q -0.54,-1.23 -0.54,0.11 c -0.03,28.82 -4.71,56.88 -13.73,84.31 -6.64,20.19 -14.96,38.73 -22.97,57.94 q -19.44,46.58 -22.54,97.04 c -2.03,32.91 -2.74,56.56 -11.57,82.82 -10.64,31.64 -34.94,53.24 -65.84,64.72 -18.36,6.82 -37.63,10.22 -57.12,12.62 q -0.93,0.12 -0.93,1.06 0.04,11.48 0.04,21.69 c -0.01,3.02 0.71,4.53 3.99,4.27 q 43.09,-3.35 81.58,-19.85 c 34.97,-14.99 61.39,-40.47 71.17,-78.08 6.02,-23.15 6.52,-44.86 7.82,-67.76 1.88,-33.22 7.81,-65.44 17.03,-97.34 12.75,-44.07 22.14,-83.73 20.07,-126.91 q -0.83,-17.15 -5.37,-33.7 -0.34,-1.23 -1.09,-2.94" id="path4" />
      <path stroke="#adacad" vector-effect="non-scaling-stroke" d="m 437.9,403.48 11.46,12.89 q 0.35,0.39 0.85,0.28 2.81,-0.61 5.67,-0.58 0.11,0 0.16,-0.11 0.06,-0.15 0.08,-0.26 0.01,-0.03 0.04,-0.04 l 5.86,-1.24 q 0.16,-0.03 0.23,-0.18 0.07,-0.13 0.12,-0.28 0.11,-0.29 0.41,-0.35 c 1.34,-0.24 2.48,-0.66 3.89,-0.74 3.11,-0.16 5.7,-2.35 8.59,0.08 a 0.6,0.59 18.8 0 0 0.98,-0.48 q -0.5,-10.89 -3.63,-20.85" id="path5" />
      <path stroke="#848384" vector-effect="non-scaling-stroke" d="m 472.61,391.62 c -18.25,-57.77 -70.19,-83.52 -127.35,-85.23 -29.04,-0.86 -56.96,5.91 -80.29,23.86 -3.58,2.75 -5.99,6.15 -4.79,10.54 3.74,13.64 21.17,2.51 28.76,-0.17 q 27.9,-9.83 57.55,-5.81 16.02,2.17 24.39,5.54 6.35,2.57 11.62,4.54 4.59,1.72 -0.29,1.3 -7.53,-0.66 -16.97,0.74 -30.7,4.56 -54.46,23.26 c -12.13,9.56 -22.91,21.2 -31.23,34.35 q -1.8,2.84 -2.99,5.94 a 0.76,0.76 0 0 0 0.52,1 c 3.4,0.89 6.74,1.84 10.28,2.36 9.6,1.41 20.51,2.31 29.35,6.17 6.63,2.91 13.05,9.26 18.94,14.37 16.86,14.63 37.14,16.09 58.3,10.72 16.38,-4.15 31.47,-9.25 49.34,-10.37 q 0.67,-0.04 0.47,-0.68 -1.3,-4.22 -4.5,-9.56 c -10.89,-18.19 -26.83,-33.56 -46.57,-41.07 -26.27,-10 -62.39,-5.6 -85.37,11.23 q -0.16,0.12 -0.28,-0.03 l -0.01,-0.01 q -0.12,-0.14 0.02,-0.28 c 13.92,-13.05 29.25,-22.28 48.52,-24.69 33.58,-4.21 59.69,10.6 82.33,33.84" id="path6" />
      <path stroke="#333132" vector-effect="non-scaling-stroke" d="m 472.61,391.62 q -4.97,-0.4 -10.11,0.97 -0.24,0.06 -0.51,0.42 -0.27,0.37 -0.68,0.56 -2.45,1.11 -5.06,1.55 c -0.76,0.13 -2.49,1.71 -3.61,2.15 q -3.72,1.48 -7.28,3.32 -0.29,0.15 -0.49,0.4 -0.22,0.28 -0.57,0.38 l -3.29,0.94 q -0.52,0.15 -0.84,0.57 -0.54,0.71 -2.27,0.6" id="path7" />
    </g>
    <path style="stroke-width:0.264583" d="m 170.97411,117.19172 q -0.14288,-0.32544 -0.14288,0.0291 c -0.008,7.62529 -1.24618,15.0495 -3.63272,22.30702 -1.75684,5.34194 -3.95817,10.24731 -6.07748,15.32996 q -5.1435,12.32429 -5.96371,25.67516 c -0.53711,8.70744 -0.72496,14.96484 -3.06123,21.9128 -2.81517,8.37141 -9.24454,14.08641 -17.42017,17.12383 -4.85775,1.80446 -9.95627,2.70404 -15.113,3.33904 q -0.24606,0.0318 -0.24606,0.28046 0.0106,3.03742 0.0106,5.73881 c -0.003,0.79904 0.18786,1.19856 1.05569,1.12977 q 11.4009,-0.88635 21.58471,-5.25198 c 9.25248,-3.9661 16.24277,-10.70768 18.83039,-20.65866 1.5928,-6.12511 1.72509,-11.86921 2.06905,-17.92817 0.49741,-8.78946 2.06639,-17.31433 4.50585,-25.75454 3.37344,-11.66019 5.85788,-22.15356 5.31019,-33.57827 q -0.21961,-4.53761 -1.42081,-8.91646 -0.09,-0.32544 -0.2884,-0.77787 z" id="path18" />
    <path style="stroke-width:0.264583" d="m 156.31884,109.50822 c -5.52979,-4.15396 -13.42231,-5.26257 -19.86227,-2.86544 q -4.56406,1.69862 -8.37671,5.58271 -1.18269,1.20385 -2.36273,2.41564 -0.11112,0.11377 0.0476,0.13494 4.18835,0.61648 7.17814,1.42875 c 6.64898,1.80181 12.93548,3.15648 18.90183,-1.37848 q 2.24103,-1.70392 4.51644,-3.34962 c 0.83344,-0.60325 0.75142,-1.37319 -0.0423,-1.9685 z" id="path17" />
    <path style="stroke-width:0.264583" d="m 165.75917,108.32288 c -9.8716,-12.649726 -31.80291,-16.584081 -39.44673,1.12184 q -0.082,0.1905 0.0529,0.0344 c 3.12473,-3.61156 6.73365,-6.29444 11.53583,-7.68879 10.13354,-2.936875 19.17171,1.62983 27.65954,6.75481 q 0.7038,0.42598 0.19844,-0.22225 z" id="path16" />
    <path style="stroke-width:0.264583" d="m 132.08036,81.655529 q -0.12965,0.0344 -0.32015,0.01587 C 113.93523,79.948966 95.782173,70.659446 85.632756,55.541154 Q 84.365402,53.654675 83.88386,52.395258 83.315006,50.900362 84.839006,50.516717 94.541277,48.066675 104.1139,47.51105 c 39.54727,-2.299229 76.02273,23.674916 88.33115,61.23252 q 3.99256,12.18142 4.29683,24.96344 0.0608,2.58233 -0.11377,5.28373 -1.95792,30.07783 -21.336,53.20506 -1.99496,2.38389 -2.70404,3.36021 c -2.53206,3.48456 1.89971,7.86077 5.22816,4.97152 q 1.43669,-1.24884 3.39196,-3.55865 c 13.37469,-15.80885 21.082,-34.99379 22.80973,-55.60219 C 206.10813,116.42442 196.33971,90.283591 179.6154,71.858008 167.91553,58.970154 153.19146,49.588029 136.51742,44.1138 124.64821,40.216488 111.59103,39.044383 99.348756,40.473133 55.052215,45.640446 20.037257,82.745612 16.150528,126.81197 c -2.775479,31.45895 10.892896,62.36493 35.126083,82.28541 q 8.257645,6.78656 17.851437,11.40883 a 0.08202083,0.08202083 0 0 0 0.116417,-0.0926 q -1.807104,-7.98512 -4.378854,-15.69508 c -0.415396,-1.24619 -0.431271,-2.42888 -1.402292,-3.43429 q -2.174875,-2.2569 -4.235979,-4.96623 -9.022292,-11.85598 -14.030854,-25.72015 c -3.074459,-8.51429 -4.532313,-17.51806 -4.529667,-26.57739 0,-1.07421 0.01588,-1.86796 0.775229,-2.50032 0.92075,-0.76464 2.140479,-0.11112 2.333625,0.98161 q 1.359959,7.71789 3.127375,13.68689 c 5.286375,17.85673 14.467417,34.9885 28.141083,47.85254 q 8.292042,7.79992 18.586979,11.94859 7.44273,2.99773 15.47812,3.09562 0.71438,0.008 1.33615,0.0106 a 0.33072916,0.333375 0.2 0 0 0.33338,-0.33338 q 0.0132,-7.29985 0.0212,-14.48594 c 0.003,-3.05858 -2.58498,-4.96093 -5.07735,-6.23093 -4.86569,-2.48444 -9.183689,-5.06148 -12.319001,-9.68905 q -0.08467,-0.12435 0.03704,-0.21166 l 0.05821,-0.0397 a 0.10847917,0.10847917 0 0 1 0.140229,0.0159 c 3.976687,4.33388 11.863912,4.9583 17.245542,4.66461 3.49779,-0.1905 6.83154,-0.84667 9.86631,-2.57704 q 1.19592,-0.68527 1.66423,-1.36261 c 0.33602,-0.48683 0.79904,-1.70656 -0.11112,-1.96585 q -0.78582,-0.2249 -1.45257,-0.33073 c -4.572,-0.74083 -9.39006,-2.18281 -13.89327,-2.18281 q -8.665102,0.003 -17.32756,-0.0397 c -1.423458,-0.008 -3.878791,-0.20638 -4.1275,-2.00025 a 0.67468749,0.67204166 78.6 0 1 0.492125,-0.74348 c 2.3495,-0.62706 3.664479,-1.57162 6.262688,-3.25173 q 2.166937,-1.40229 4.328583,-2.80723 c 1.881187,-1.21973 3.984624,-2.46591 5.939894,-2.74108 2.10609,-0.29633 3.29142,0.89958 4.80484,2.09285 0.90222,0.70909 2.04258,0.64559 2.93422,-0.0873 1.17211,-0.95779 1.94205,-1.87589 3.57982,-1.95792 1.04775,-0.0503 2.63525,0.52917 3.48985,1.09009 q 6.22035,4.0931 9.10431,5.71764 2.28336,1.28852 4.13544,1.93146 1.28058,0.4445 0.20108,-0.37571 -4.71223,-3.58245 -9.89541,-6.62252 -3.64596,-2.13783 -7.30515,-4.25185 c -4.31271,-2.48973 -7.75758,-4.9239 -11.00931,-8.43756 a 0.65087499,0.64558333 62 0 0 -0.62177,-0.19315 c -3.99521,0.92075 -7.154335,-4.4159 -4.074585,-7.37658 q 1.590146,-1.52929 3.645955,-1.28588 c 1.29646,0.15081 2.29923,0.91811 3.35227,1.74361 1.36261,1.07156 4.35769,1.86531 5.50598,0.0238 q 0.3519,-0.56621 0.36777,-1.63777 c 0.16669,-12.78467 0.045,-25.58521 0.0609,-38.37252 0.008,-8.4455 2.71462,-16.271877 8.93498,-22.142981 7.99041,-7.535334 19.35427,-8.815917 29.75504,-6.992938 7.81579,1.370542 15.65804,4.220104 22.33348,8.516938 q 1.40494,0.902229 2.88396,1.875895 a 0.2936875,0.2936875 0 0 0 0.45243,-0.227541 q 0.0317,-0.53975 -0.30956,-1.17475 c -3.41048,-6.323542 -9.55146,-11.004021 -16.08137,-13.745104 -5.41338,-2.270125 -10.97757,-3.532188 -16.86984,-4.704292 -4.56141,-0.907521 -8.29204,-1.793875 -12.38514,-3.008312 q -12.9726,-3.847062 -23.9925,-11.676083 -4.86833,-3.458104 -9.276291,-7.482416 c -0.447146,-0.407459 -0.939271,-1.071563 -1.481666,-1.542521 q -0.187854,-0.164042 -0.100542,0.06879 c 1.222375,3.296708 4.233333,6.797145 6.783919,9.337145 q 5.92931,5.897563 13.01221,10.3505 c 5.63827,3.545417 11.60197,6.426729 17.63447,9.231313 a 0.10054167,0.10054167 0 0 1 -0.0159,0.187854 z" id="path15" />
    <path d="M 13.033489,34.431229 13.318792,231.75649 213.21178,231.1859 212.64117,34.431229 Z" style="stroke-width:0.264583" id="path19" />
    <path fill="#fefefe" d="m 132.08036,81.655529 c 0.0898,-0.02495 0.10028,-0.14816 0.0159,-0.187854 -6.0325,-2.804584 -11.9962,-5.685896 -17.63447,-9.231313 -4.72193,-2.968625 -9.05934,-6.418791 -13.01221,-10.3505 -2.550586,-2.54 -5.561544,-6.040437 -6.783919,-9.337145 -0.05821,-0.155223 -0.02469,-0.178153 0.100542,-0.06879 0.542395,0.470958 1.03452,1.135062 1.481666,1.542521 2.938641,2.682875 6.030741,5.177013 9.276291,7.482416 7.3466,5.219347 15.34407,9.111368 23.99242,11.676063 4.0931,1.214437 7.82373,2.100791 12.38514,3.008312 5.89227,1.172104 11.45646,2.434167 16.86984,4.704292 6.52991,2.741083 12.67089,7.421562 16.08137,13.745104 0.22754,0.423333 0.33073,0.814917 0.30956,1.17475 -0.0146,0.223617 -0.2642,0.349144 -0.45243,0.227541 -0.98601,-0.649111 -1.94733,-1.274409 -2.88396,-1.875895 -6.67544,-4.296834 -14.51769,-7.146396 -22.33348,-8.516938 -10.40077,-1.822979 -21.76463,-0.542396 -29.75504,6.992938 -6.22036,5.871104 -8.92704,13.697479 -8.93498,22.142979 -0.0159,12.78731 0.10583,25.58785 -0.0609,38.37252 -0.0106,0.71437 -0.13319,1.2603 -0.36777,1.63777 -1.14829,1.8415 -4.14337,1.04775 -5.50598,-0.0238 -1.05304,-0.8255 -2.05581,-1.5928 -3.35227,-1.74361 -1.37054,-0.16227 -2.585858,0.26635 -3.645955,1.28588 -3.07975,2.96068 0.07937,8.29733 4.074585,7.37658 0.22599,-0.0522 0.46331,0.0215 0.62177,0.19315 3.25173,3.51366 6.6966,5.94783 11.00931,8.43756 2.43946,1.40935 4.87451,2.82663 7.30515,4.25185 3.45545,2.02671 6.75392,4.23422 9.89541,6.62252 0.71967,0.54681 0.65264,0.67204 -0.20108,0.37571 -1.23472,-0.42863 -2.6132,-1.07245 -4.13544,-1.93146 -1.92264,-1.08303 -4.95741,-2.98891 -9.10431,-5.71764 -0.8546,-0.56092 -2.4421,-1.14036 -3.48985,-1.09009 -1.63777,0.082 -2.40771,1.00013 -3.57982,1.95792 -0.89164,0.7329 -2.032,0.7964 -2.93422,0.0873 -1.51342,-1.19327 -2.69875,-2.38918 -4.80484,-2.09285 -1.95527,0.27517 -4.058707,1.52135 -5.939894,2.74108 -1.441097,0.93663 -2.883958,1.87237 -4.328583,2.80723 -2.598209,1.68011 -3.913188,2.62467 -6.262688,3.25173 -0.32763,0.0874 -0.538656,0.40625 -0.492125,0.74348 0.248709,1.79387 2.704042,1.99231 4.1275,2.00025 5.774972,0.0282 11.55083,0.0414 17.32756,0.0397 4.50321,0 9.32127,1.44198 13.89327,2.18281 0.4445,0.0705 0.92869,0.1808 1.45257,0.33073 0.91016,0.25929 0.44714,1.47902 0.11112,1.96585 -0.31221,0.45156 -0.86695,0.90576 -1.66423,1.36261 -3.03477,1.73037 -6.36852,2.38654 -9.86631,2.57704 -5.38163,0.29369 -13.268855,-0.33073 -17.245542,-4.66461 -0.03644,-0.0391 -0.09596,-0.0459 -0.140229,-0.0159 l -0.05821,0.0397 c -0.08114,0.0582 -0.09349,0.12875 -0.03704,0.21166 3.135312,4.62757 7.453311,7.20461 12.319001,9.68905 2.49237,1.27 5.08,3.17235 5.07735,6.23093 -0.005,4.79073 -0.0124,9.61937 -0.0212,14.48594 0,0.18516 -0.14969,0.33485 -0.33338,0.33338 -0.41451,-0.002 -0.8599,-0.006 -1.33615,-0.0106 -5.35693,-0.0653 -10.5163,-1.09714 -15.47812,-3.09562 -6.863291,-2.76578 -13.058951,-6.74864 -18.586979,-11.94859 -13.673616,-12.86402 -22.854658,-29.99579 -28.141033,-47.85252 -1.178277,-3.97933 -2.220736,-8.54163 -3.127375,-13.68689 -0.193146,-1.09273 -1.412875,-1.74625 -2.333625,-0.98161 -0.759354,0.63236 -7.051886,-1.42692 -7.051886,-0.35271 -2.285021,9.62994 -0.827213,16.6366 2.247246,28.28921 1.912528,8.95748 6.217134,14.15235 13.460249,22.86712 5.368305,6.65637 12.48635,13.44723 16.218688,16.94895 6.39177,7.28207 16.963841,12.17368 17.379237,13.41987 1.7145,5.13998 -5.955565,5.23622 -11.883394,2.00056 -4.263178,-2.21463 -7.75719,-3.58514 -11.243218,-6.46936 -3.828137,-3.36681 -4.64317,-3.74613 -10.148267,-8.2705 C 26.187516,190.03281 13.375049,158.27092 16.150528,126.81197 20.037257,82.745612 55.052215,45.640446 99.348756,40.473133 c 12.242274,-1.42875 25.299454,-0.256645 37.168664,3.640667 16.67404,5.474229 31.39811,14.856354 43.09798,27.744208 16.72431,18.425583 26.49273,44.566412 24.40252,69.508682 -1.72773,20.6084 -9.43504,39.79334 -22.80973,55.60219 -1.30351,1.53987 -2.43417,2.72609 -3.39196,3.55865 -3.32845,2.88925 -7.76022,-1.48696 -5.22816,-4.97152 0.47272,-0.65088 1.37407,-1.77095 2.70404,-3.36021 12.91872,-15.41815 20.03072,-33.15317 21.336,-53.20506 0.11641,-1.80093 0.15434,-3.56218 0.11377,-5.28373 -0.20285,-8.52135 -1.63512,-16.84249 -4.29683,-24.96344 -12.30842,-37.557604 -48.78388,-63.531749 -88.33115,-61.23252 -6.381749,0.370417 -12.806713,1.372306 -19.274894,3.005667 -1.016,0.255763 -1.334382,0.881944 -0.955146,1.878541 0.321028,0.839611 0.903993,1.888243 1.748896,3.145896 10.149417,15.118292 28.302474,24.407812 46.127454,26.13025 0.127,0.01235 0.23372,0.0071 0.32015,-0.01587 z m -40.560625,24.722671 3.032125,3.41047 c 0.06173,0.0688 0.136699,0.0935 0.224896,0.0741 0.495653,-0.1076 0.995715,-0.15875 1.500187,-0.15346 0.01941,0 0.03352,-0.01 0.04233,-0.0291 0.01058,-0.0265 0.01764,-0.0494 0.02117,-0.0688 0.0017,-0.005 0.0053,-0.009 0.01058,-0.0106 l 1.550458,-0.32808 c 0.02822,-0.005 0.0485,-0.0212 0.06085,-0.0476 0.01235,-0.0229 0.02293,-0.0476 0.03175,-0.0741 0.0194,-0.0511 0.05556,-0.082 0.108479,-0.0926 0.354542,-0.0635 0.656167,-0.17462 1.02923,-0.19579 0.822854,-0.0423 1.50812,-0.62177 2.27277,0.0212 0.1067,0.0883 0.26743,0.01 0.25929,-0.127 -0.0882,-1.92087 -0.40834,-3.75973 -0.96044,-5.51656 C 95.874777,87.955258 82.132319,81.142237 67.008736,80.6898 c -7.6835,-0.227542 -15.070667,1.563687 -21.243396,6.312958 -0.947208,0.727604 -1.584854,1.627187 -1.267354,2.788708 0.989541,3.608917 5.601229,0.664104 7.609416,-0.04498 4.92125,-1.733903 9.99684,-2.246312 15.226771,-1.537229 2.82575,0.382764 4.976812,0.871361 6.453187,1.465791 1.12007,0.45332 2.14489,0.853723 3.074459,1.201209 0.809625,0.303389 0.784048,0.418041 -0.07673,0.343958 -1.328209,-0.116417 -2.824869,-0.05115 -4.48998,0.195792 -5.415139,0.804333 -10.218208,2.855736 -14.409208,6.154208 -3.209395,2.529415 -6.061604,5.609165 -8.262937,9.088435 -0.3175,0.50095 -0.581201,1.02482 -0.791104,1.57163 -0.04145,0.11153 0.02248,0.23446 0.137583,0.26458 0.899583,0.23548 1.783292,0.48684 2.719917,0.62442 2.54,0.37306 5.426604,0.61119 7.76552,1.63248 1.754188,0.76994 3.452813,2.45004 5.011209,3.80206 4.460875,3.87085 9.826625,4.25715 15.425208,2.83633 4.333875,-1.09802 8.326437,-2.44739 13.054541,-2.74373 0.118181,-0.007 0.159632,-0.067 0.124355,-0.17991 -0.229306,-0.74436 -0.626181,-1.5875 -1.190625,-2.52942 -2.881313,-4.81277 -7.098771,-8.87942 -12.321646,-10.86644 -6.950604,-2.645831 -16.507354,-1.481664 -22.587479,2.97127 -0.02822,0.0212 -0.05291,0.0185 -0.07408,-0.008 l -0.0026,-0.003 c -0.02117,-0.0247 -0.0194,-0.0494 0.0053,-0.0741 3.683,-3.45281 7.739063,-5.89492 12.837584,-6.532566 8.884708,-1.113896 15.792979,2.804586 21.783145,8.953506 z" id="path9" style="stroke-width:0.264583" />
    <path fill="#090709" d="m 100.70342,103.24024 q -1.314977,-0.10584 -2.674935,0.25664 -0.0635,0.0159 -0.134937,0.11113 -0.07144,0.0979 -0.179917,0.14816 -0.648229,0.29369 -1.338792,0.41011 c -0.201083,0.0344 -0.658812,0.45244 -0.955146,0.56885 q -0.984249,0.39159 -1.926166,0.87842 -0.07673,0.0397 -0.129646,0.10583 -0.05821,0.0741 -0.150812,0.10054 l -0.87048,0.24871 q -0.137583,0.0397 -0.22225,0.15082 -0.142875,0.18785 -0.600604,0.15875 C 85.529569,100.22928 78.621298,96.310799 69.73659,97.424695 c -5.098521,0.637646 -9.154584,3.079755 -12.837584,6.532565 q -0.03704,0.037 -0.0053,0.0741 l 0.0026,0.003 q 0.03175,0.0397 0.07408,0.008 c 6.080125,-4.452933 15.636875,-5.6171 22.587479,-2.97127 5.222875,1.98702 9.440333,6.05367 12.321646,10.86644 q 0.846666,1.41288 1.190625,2.52942 0.05292,0.16933 -0.124355,0.17991 c -4.728104,0.29634 -8.720666,1.64571 -13.054541,2.74373 -5.598583,1.42082 -10.964333,1.03452 -15.425208,-2.83633 -1.558396,-1.35202 -3.257021,-3.03212 -5.011209,-3.80206 -2.338916,-1.02129 -5.22552,-1.25942 -7.76552,-1.63248 -0.936625,-0.13758 -1.820334,-0.38894 -2.719917,-0.62442 a 0.20108333,0.20108333 0 0 1 -0.137583,-0.26458 q 0.314854,-0.82021 0.791104,-1.57163 c 2.201333,-3.47927 5.053542,-6.55902 8.262937,-9.088434 q 6.2865,-4.947708 14.409208,-6.154208 2.497667,-0.370417 4.48998,-0.195792 1.291166,0.111125 0.07673,-0.343958 -1.394354,-0.521229 -3.074459,-1.201209 -2.214562,-0.891645 -6.453187,-1.465791 -7.844896,-1.063625 -15.226771,1.537229 c -2.008187,0.709083 -6.619875,3.653896 -7.609416,0.04498 -0.3175,-1.161521 0.320146,-2.061104 1.267354,-2.788708 6.172729,-4.749271 13.559896,-6.5405 21.243396,-6.312958 15.123583,0.452437 28.866041,7.265458 33.694681,22.550439 z" id="path10" style="stroke-width:0.264583" />
    <path fill="#fefefe" d="m 126.31244,109.44472 c 7.64382,-17.705921 29.57513,-13.771566 39.44673,-1.12184 q 0.50536,0.64823 -0.19844,0.22225 c -8.48783,-5.12498 -17.526,-9.691685 -27.65954,-6.75481 -4.80218,1.39435 -8.4111,4.07723 -11.53583,7.68879 q -0.13494,0.15611 -0.0529,-0.0344 z" id="path11" style="stroke-width:0.264583" />
    <path fill="#fefefe" d="m 136.45657,106.64278 c 6.43996,-2.39713 14.33248,-1.28852 19.86227,2.86544 0.79375,0.59531 0.87577,1.36525 0.0423,1.9685 q -2.27541,1.6457 -4.51644,3.34962 c -5.96635,4.53496 -12.25285,3.18029 -18.90183,1.37848 q -2.98979,-0.81227 -7.17814,-1.42875 -0.15875,-0.0212 -0.0476,-0.13494 1.18004,-1.21179 2.36273,-2.41564 3.81265,-3.88409 8.37671,-5.58271 z" id="path13" style="stroke-width:0.264583" />
    <path fill="#fefefe" d="m 170.97411,117.19172 q 0.19844,0.45243 0.2884,0.77787 1.2012,4.37885 1.42081,8.91646 c 0.54769,11.42471 -1.93675,21.91808 -5.31019,33.57827 -2.43946,8.44021 -4.00844,16.96508 -4.50585,25.75454 -0.34396,6.05896 -0.47625,11.80306 -2.06905,17.92817 -2.58762,9.95098 -9.57791,16.69256 -18.83039,20.65866 q -10.18381,4.36563 -21.58471,5.25198 c -0.86783,0.0688 -1.05833,-0.33073 -1.05569,-1.12977 q 0,-2.70139 -0.0106,-5.73881 0,-0.24871 0.24606,-0.28046 c 5.15673,-0.635 10.25525,-1.53458 15.113,-3.33904 8.17563,-3.03742 14.605,-8.75242 17.42017,-17.12383 2.33627,-6.94796 2.52412,-13.20536 3.06123,-21.9128 q 0.82021,-13.35087 5.96371,-25.67516 c 2.11931,-5.08265 4.32064,-9.98802 6.07748,-15.32996 2.38654,-7.25752 3.62479,-14.68173 3.63272,-22.30702 q 0,-0.35454 0.14288,-0.0291 z" id="path14" style="stroke-width:0.264583" />
    <g id="g1" transform="translate(-12.252836,-10.89141)">
      <g id="g2">
        <path style="font-size:33.7598px;font-family:'Monday Banana';-inkscape-font-specification:'Monday Banana, Normal';fill:#666666;stroke-width:0.264583" d="m 88.886001,278.40892 q -1.823029,0.3376 -3.713578,0.1688 -1.890549,-0.13504 -3.646058,-0.70896 -0.708956,-0.23632 -1.384152,-0.60768 -0.641436,-0.40511 -1.215353,-0.87775 -0.607676,-0.54016 -1.080314,-1.18159 -0.472637,-0.64144 -0.843995,-1.3504 -0.472637,-0.97903 -0.776475,-2.02558 -0.303838,-1.04656 -0.438877,-2.12687 -0.371358,-2.56575 0.03376,-5.16525 0.438878,-2.63326 1.552951,-4.96269 0.472637,-0.94528 1.114074,-1.75551 0.641436,-0.81024 1.384151,-1.55295 0.708956,-0.70896 1.586711,-1.24911 0.911515,-0.57392 1.890549,-0.844 2.363186,-0.67519 4.827651,-0.20256 1.519191,0.30384 2.802064,1.31663 1.316632,1.0128 2.093107,2.29567 0.371358,0.6752 0.675196,1.41791 0.337598,0.74272 0.202559,1.48543 -0.06752,0.40512 -0.371358,0.64144 -0.303838,0.20256 -0.641436,0.20256 -0.337598,0 -0.641436,-0.20256 -0.303838,-0.23632 -0.371358,-0.64144 v -0.27007 q 0.03376,-0.47264 -0.202559,-0.87776 -0.202559,-0.40512 -0.438877,-0.77647 -0.371358,-0.60768 -0.911515,-1.08032 -0.506397,-0.5064 -1.080313,-0.87775 -0.776476,-0.5064 -1.72175,-0.30384 -0.405118,0.10128 -0.776476,0.37136 -0.371357,0.27007 -0.641436,0.60767 -0.472637,0.5064 -0.776475,1.11408 -0.270079,0.60767 -0.540157,1.24911 -0.438877,1.08031 -0.675196,2.19439 -0.236319,1.11407 -0.405118,2.22814 -0.202558,1.45167 -0.303838,2.90335 -0.101279,1.41791 -0.03376,2.90334 0.06752,1.21535 0.13504,2.46446 0.101279,1.21536 0.573916,2.32943 0.337598,0.81023 1.114074,1.41791 0.202558,0.1688 0.776475,0.30384 0.573917,0.13504 0.810235,0.1688 0.371358,0.0675 0.708956,0.0338 0.337598,-0.0338 0.708956,-0.10128 0.641436,-0.10128 1.249112,-0.30384 0.641437,-0.20256 1.215353,-0.57392 0.270079,-0.16879 0.472637,-0.37135 0.236319,-0.20256 0.405118,-0.47264 0.270078,-0.43888 0.371358,-0.91152 0.135039,-0.50639 0.202559,-0.97903 0.101279,-1.11407 0.03376,-2.22815 -0.03376,-1.11407 -0.03376,-2.22814 -0.202559,0 -0.742716,0 -0.540157,0 -1.147833,0.0338 -0.607677,0 -1.147833,0.0338 -0.540157,0 -0.742716,0.0338 -0.405118,0.0675 -0.708956,-0.13504 -0.303838,-0.20256 -0.438877,-0.5064 -0.10128,-0.3376 0,-0.6752 0.101279,-0.37135 0.472637,-0.57391 0.303838,-0.1688 0.675196,-0.1688 0.371358,0 0.742716,-0.0338 0.236318,0 0.843995,0 0.641436,-0.0338 1.350392,-0.0338 0.708955,0 1.316632,0.0338 0.607676,0 0.877755,0.0338 0.472637,0.10128 0.708955,0.5064 0.270079,0.40511 0.10128,0.87775 -0.03376,0.0338 -0.06752,0.10128 -0.03376,0.0675 -0.06752,0.10128 -0.03376,1.28287 0.03376,2.56574 0.06752,1.24912 -0.06752,2.53199 -0.06752,0.87775 -0.405118,1.75551 -0.303838,0.87775 -0.911514,1.51919 -0.776476,0.81023 -1.82303,1.31663 -1.046553,0.47264 -2.126867,0.6752 z m 19.344299,-0.3376 q -1.65423,0.1688 -3.37598,-0.1688 -1.68799,-0.37136 -3.13966,-1.18159 -1.24911,-0.70896 -2.194387,-1.85679 -0.911515,-1.18159 -1.485432,-2.49823 -0.573916,-1.28287 -0.742715,-2.66702 -0.168799,-1.38415 -0.202559,-2.7683 0,-0.37136 0,-1.31664 0,-0.94527 0,-2.16062 0,-1.21536 0,-2.56575 0,-1.35039 0,-2.56574 0.03376,-1.21536 0.03376,-2.12687 0,-0.94528 0,-1.31663 0,-0.1688 0.03376,-0.5064 0.06752,-0.37136 0.168799,-0.5064 0.405117,-0.43887 1.080313,-0.50639 0.270079,-0.0338 0.911515,-0.0338 0.675196,0 1.384156,0.0675 0.70895,0.0338 1.35039,0.10128 0.64143,0.0338 0.91151,0.10127 0.37136,0.0675 0.6752,0.23632 0.3376,0.13504 0.60767,0.40512 0.27008,0.27008 0.37136,0.60768 0.10128,0.3376 0.1688,0.70895 0.0675,0.47264 0.10128,0.94528 0.0338,0.47263 0.0675,0.94527 0.10128,2.97086 -0.0338,5.90797 -0.10128,2.9371 0.0675,5.90796 0.0338,0.77648 0.10128,1.51919 0.0675,0.70896 0.23632,1.45167 0.23632,0.94528 0.81023,1.82303 0.60768,0.844 1.48543,1.31664 0.70896,0.37135 1.55296,0.30383 0.87775,-0.0675 1.65423,-0.30383 0.57391,-0.1688 1.11407,-0.43888 0.57392,-0.27008 1.01279,-0.70896 0.91152,-0.87775 1.48543,-2.05935 0.57392,-1.18159 0.87776,-2.39694 0.43888,-1.75551 0.54016,-3.51102 0.13503,-1.78927 0.16879,-3.6123 0,-0.3376 0,-1.28287 0.0338,-0.97904 0.0338,-2.05935 0,-1.08031 0,-2.02559 0,-0.97903 0,-1.28287 -0.0338,-0.1688 -0.0675,-0.30384 -0.0338,-0.1688 -0.0675,-0.3376 -0.0675,-0.47263 0.16879,-0.77647 0.27008,-0.30384 0.60768,-0.37136 0.37136,-0.10128 0.70896,0.10128 0.37135,0.1688 0.50639,0.64144 0.0675,0.23632 0.10128,0.87775 0.0338,0.60768 0.0338,1.31663 0.0338,0.6752 0.0338,1.31664 0,0.60767 0,0.84399 0,1.82303 -0.0338,3.64606 0,1.78927 -0.1688,3.6123 -0.1688,1.45167 -0.43887,2.86958 -0.27008,1.41791 -0.77648,2.7683 -0.57392,1.45168 -1.62047,2.73455 -1.04655,1.28287 -2.46446,2.02559 -0.97904,0.54015 -2.09311,0.77647 -1.11408,0.23632 -2.26191,0.3376 z m 19.00672,-0.0675 q -0.3376,0.1688 -0.70896,0.20256 -0.37135,0.0675 -0.74271,0.0675 -0.70896,0.0338 -1.41791,0 -0.70896,0 -1.45167,-0.0675 -0.6752,0 -1.21536,-0.20256 -0.57391,-0.23632 -0.67519,-0.77648 0,-0.33759 0.0338,-0.50639 0.1688,-4.35502 0.27008,-8.64251 0.10128,-4.32126 0,-8.67627 0,-0.23632 -0.0338,-0.91151 0,-0.70896 -0.0338,-1.45168 -0.0338,-0.77647 -0.0338,-1.45167 0,-0.70895 0,-0.94527 0.0675,-0.3376 0.27007,-0.64144 0.20256,-0.30384 0.5064,-0.43888 0.3376,-0.13503 1.04656,-0.16879 0.70895,-0.0675 1.48543,-0.0675 0.81023,0 1.51919,0.0338 0.74271,0.0338 1.08031,0.0675 0.20256,0.0675 0.37136,0.13503 0.20256,0.0338 0.37136,0.1688 0.13504,0.10128 0.20256,0.27008 0.0675,0.1688 0.13503,0.3376 0.13504,0.54016 0.13504,1.89055 0,1.35039 -0.0338,2.90334 -0.0338,1.51919 -0.10128,2.90334 -0.0675,1.3504 -0.0675,1.89055 -0.0338,2.09311 -0.0675,4.18622 0,2.05935 -0.0675,4.15245 0,0.30384 0,1.0128 0,0.70895 0,1.51919 0,0.77647 -0.0338,1.48543 -0.0338,0.70896 -0.10128,0.97903 -0.1688,0.54016 -0.64144,0.74272 z m 15.12436,0.10128 q -1.48543,0.37136 -3.07214,0.37136 -1.55295,0 -3.03838,-0.47264 -0.91152,-0.30384 -1.78927,-0.81024 -0.844,-0.50639 -1.51919,-1.21535 -0.70896,-0.77647 -1.14784,-1.72175 -0.43887,-0.97903 -0.67519,-1.99183 -0.0675,-0.27007 -0.10128,-0.50639 -0.0338,-0.27008 0.0338,-0.54016 0.0675,-0.47264 0.37136,-0.74272 0.30383,-0.20255 0.64143,-0.23631 0.3376,-0.0338 0.60768,0.10128 0.30384,0.13503 0.47264,0.40511 0.1688,0.27008 0.13504,0.64144 -0.0675,0.60768 0.16879,1.21535 0.27008,0.57392 0.57392,1.11408 0.3376,0.70895 0.91152,1.24911 0.57391,0.50639 1.24911,0.84399 0.70895,0.3376 1.48543,0.43888 0.77647,0.10128 1.55295,-0.0675 0.57392,-0.10128 1.08031,-0.40512 0.54016,-0.30384 0.81024,-0.81023 0.30384,-0.54016 0.30384,-1.14784 0,-0.64143 -0.3376,-1.18159 -0.43888,-0.77647 -1.04655,-1.41791 -0.57392,-0.6752 -1.21536,-1.28287 -0.91151,-0.81024 -1.89055,-1.51919 -0.94527,-0.74272 -1.9243,-1.51919 -1.28288,-0.97904 -2.22815,-2.36319 -0.94528,-1.41791 -1.28287,-3.03838 -0.1688,-0.87776 -0.13504,-1.78927 0.0675,-0.94528 0.37135,-1.78927 0.37136,-0.97904 1.0128,-1.82303 0.67519,-0.844 1.55295,-1.45167 0.94527,-0.6752 2.05935,-1.08032 1.14783,-0.43887 2.32942,-0.54015 1.3504,-0.13504 2.73455,0.10128 1.41791,0.20256 2.5995,0.87775 1.18159,0.6752 2.09311,1.72175 0.91151,1.04656 1.45167,2.29567 0.1688,0.40512 0.30384,0.84399 0.13504,0.40512 0.20256,0.844 0.0675,0.27008 -0.0338,0.57392 -0.0675,0.30383 -0.27008,0.47263 -0.23632,0.23632 -0.54016,0.30384 -0.30384,0.0675 -0.57391,0.0338 -0.27008,-0.0675 -0.5064,-0.27008 -0.20256,-0.20256 -0.27008,-0.5064 -0.0338,-0.16879 -0.0338,-0.33759 0,-0.20256 -0.0675,-0.37136 -0.30384,-0.97904 -0.91151,-1.82303 -0.57392,-0.87775 -1.41791,-1.45167 -0.37136,-0.27008 -0.81024,-0.43888 -0.40512,-0.20256 -0.87775,-0.27008 -1.08032,-0.1688 -2.12687,0.3376 -1.0128,0.47264 -1.28287,1.48543 -0.10128,0.40512 -0.0675,0.844 0.0338,0.40511 0.16879,0.81023 0.1688,0.60768 0.5064,1.1816 0.3376,0.57391 0.74272,1.08031 1.51919,2.02559 3.47726,3.67982 0.70895,0.60767 1.35039,1.28287 0.64143,0.64144 1.21535,1.35039 0.43888,0.5064 0.77648,1.08031 0.37135,0.54016 0.60767,1.14784 0.40512,0.94527 0.40512,2.02559 0,1.08031 -0.37136,2.05934 -0.54015,1.51919 -1.72175,2.56575 -0.64143,0.57392 -1.45167,0.94527 -0.77647,0.37136 -1.62047,0.60768 z m 24.6446,1.04655 q -2.53198,0.23632 -5.06397,0.3376 -2.49822,0.10128 -5.03021,-0.23632 -1.38415,-0.1688 -2.73454,-0.74271 -1.35039,-0.54016 -2.32943,-1.51919 -1.01279,-1.0128 -1.55295,-2.29567 -0.5064,-1.28287 -0.5064,-2.59951 0,-1.35039 0.47264,-2.63326 0.5064,-1.28287 1.51919,-2.29567 1.28287,-1.31663 2.76831,-2.12686 -0.57392,-0.27008 -1.14784,-0.60768 -0.54015,-0.3376 -0.94527,-0.81023 -0.70896,-0.77648 -0.87776,-1.78927 -0.10128,-0.47264 -0.0675,-0.94528 0.0675,-0.5064 0.20256,-0.97903 0.20256,-0.70896 0.57392,-1.35039 0.40512,-0.64144 0.87775,-1.21536 0.77648,-0.97903 1.78927,-1.72175 1.04656,-0.77647 2.19439,-1.28287 0.94527,-0.47264 1.95807,-0.70896 1.04655,-0.27007 2.09311,-0.20255 0.54015,0.0338 1.31663,0.23631 0.77647,0.20256 1.55295,0.5064 0.81023,0.30384 1.45167,0.70896 0.6752,0.40511 0.97903,0.84399 0.23632,0.27008 0.27008,0.54016 0.0675,0.37136 -0.10128,0.64144 -0.13504,0.27007 -0.40511,0.43887 -0.23632,0.13504 -0.57392,0.13504 -0.30384,0 -0.57392,-0.23632 -0.10128,-0.10128 -0.1688,-0.20256 -0.0675,-0.10128 -0.13504,-0.23631 -0.0675,-0.10128 -0.30383,-0.20256 -0.23632,-0.13504 -0.3376,-0.20256 -0.27008,-0.10128 -0.54016,-0.20256 -0.27008,-0.13504 -0.57391,-0.20256 -1.28288,-0.27008 -2.53199,0.30384 -1.21535,0.54016 -1.82303,1.68799 -0.57392,1.01279 -0.70895,2.22815 -0.10128,1.21535 0.10127,2.36318 0.0675,0.30384 0.20256,0.74272 0.13504,0.40511 0.47264,0.47263 0.20256,0.0338 0.81024,0.0338 0.60767,-0.0338 1.28287,-0.0675 0.70895,-0.0338 1.31663,-0.0338 0.64144,0 0.844,0.0338 0.16879,0.0675 0.33759,0.1688 0.20256,0.10128 0.30384,0.27008 0.1688,0.27008 0.13504,0.74272 -0.0338,0.47263 -0.20256,0.74271 -0.13504,0.20256 -0.40512,0.27008 -0.27007,0.0675 -0.60767,0.10128 -0.3376,0 -0.6752,0 -0.30384,-0.0338 -0.54015,-0.0338 -0.10128,0 -0.43888,0 -0.3376,0 -0.70896,0 -0.3376,0 -0.67519,0 -0.3376,0 -0.43888,0.0338 -0.30384,0.0338 -0.60768,0.20256 -0.27008,0.13504 -0.50639,0.3376 -0.40512,0.40512 -0.70896,0.91151 -0.30384,0.47264 -0.47264,1.04656 -0.30384,0.97903 -0.3376,2.05934 -0.0338,1.08032 0.0675,2.12687 0.10128,0.91152 0.43888,1.82303 0.3376,0.91151 1.0128,1.58671 0.57391,0.57392 1.38415,0.844 0.84399,0.27007 1.65423,0.33759 0.10128,0.0338 0.50639,0.0675 0.43888,0.0338 0.54016,0.0675 0.23632,0 0.91152,-0.0338 0.70895,-0.0338 1.45167,-0.10128 0.77647,-0.0675 1.45167,-0.10128 0.70895,-0.0675 0.94527,-0.10127 0.47264,-0.0338 0.74272,0.27007 0.27008,0.27008 0.30384,0.6752 0.0338,0.37136 -0.20256,0.70896 -0.20256,0.33759 -0.6752,0.37135 z" id="text1" aria-label="Guise" />
        <path style="font-size:33.7598px;font-family:'Monday Banana';-inkscape-font-specification:'Monday Banana, Normal';fill:#e6e6e6;stroke-width:0.264583" d="m 87.877693,277.04155 q -1.82303,0.33759 -3.713578,0.1688 -1.890549,-0.13504 -3.646059,-0.70896 -0.708956,-0.23632 -1.384152,-0.60768 -0.641436,-0.40511 -1.215352,-0.87775 -0.607677,-0.54016 -1.080314,-1.18159 -0.472637,-0.64144 -0.843995,-1.3504 -0.472637,-0.97903 -0.776475,-2.02558 -0.303839,-1.04656 -0.438878,-2.12687 -0.371358,-2.56575 0.03376,-5.16525 0.438877,-2.63327 1.552951,-4.96269 0.472637,-0.94528 1.114073,-1.75551 0.641436,-0.81024 1.384152,-1.55295 0.708956,-0.70896 1.586711,-1.24911 0.911514,-0.57392 1.890548,-0.844 2.363186,-0.6752 4.827652,-0.20256 1.519191,0.30384 2.802063,1.31663 1.316632,1.0128 2.093108,2.29567 0.371358,0.6752 0.675196,1.41791 0.337598,0.74272 0.202559,1.48543 -0.06752,0.40512 -0.371358,0.64144 -0.303838,0.20256 -0.641436,0.20256 -0.337598,0 -0.641437,-0.20256 -0.303838,-0.23632 -0.371357,-0.64144 v -0.27008 q 0.03376,-0.47263 -0.202559,-0.87775 -0.202559,-0.40512 -0.438878,-0.77648 -0.371357,-0.60767 -0.911514,-1.08031 -0.506397,-0.5064 -1.080314,-0.87775 -0.776475,-0.5064 -1.72175,-0.30384 -0.405117,0.10128 -0.776475,0.37136 -0.371358,0.27007 -0.641436,0.60767 -0.472637,0.5064 -0.776476,1.11408 -0.270078,0.60767 -0.540156,1.24911 -0.438878,1.08031 -0.675196,2.19439 -0.236319,1.11407 -0.405118,2.22814 -0.202559,1.45167 -0.303838,2.90334 -0.10128,1.41792 -0.03376,2.90335 0.06752,1.21535 0.135039,2.46446 0.10128,1.21536 0.573917,2.32943 0.337598,0.81023 1.114073,1.41791 0.202559,0.1688 0.776476,0.30384 0.573916,0.13504 0.810235,0.1688 0.371358,0.0675 0.708956,0.0338 0.337598,-0.0338 0.708955,-0.10128 0.641437,-0.10128 1.249113,-0.30384 0.641436,-0.20256 1.215353,-0.57392 0.270078,-0.1688 0.472637,-0.37135 0.236319,-0.20256 0.405118,-0.47264 0.270078,-0.43888 0.371357,-0.91152 0.13504,-0.50639 0.202559,-0.97903 0.10128,-1.11407 0.03376,-2.22815 -0.03376,-1.11407 -0.03376,-2.22814 -0.202559,0 -0.742715,0 -0.540157,0 -1.147834,0.0338 -0.607676,0 -1.147833,0.0338 -0.540157,0 -0.742715,0.0338 -0.405118,0.0675 -0.708956,-0.13504 -0.303838,-0.20256 -0.438878,-0.5064 -0.101279,-0.3376 0,-0.6752 0.10128,-0.37135 0.472638,-0.57391 0.303838,-0.1688 0.675196,-0.1688 0.371357,0 0.742715,-0.0338 0.236319,0 0.843995,0 0.641436,-0.0338 1.350392,-0.0338 0.708956,0 1.316632,0.0338 0.607677,0 0.877755,0.0338 0.472637,0.10128 0.708956,0.50639 0.270078,0.40512 0.101279,0.87776 -0.03376,0.0338 -0.06752,0.10128 -0.03376,0.0675 -0.06752,0.10128 -0.03376,1.28287 0.03376,2.56574 0.06752,1.24912 -0.06752,2.53199 -0.06752,0.87775 -0.405117,1.75551 -0.303838,0.87775 -0.911515,1.51919 -0.776475,0.81023 -1.823029,1.31663 -1.046554,0.47264 -2.126867,0.6752 z m 19.344297,-0.3376 q -1.65423,0.1688 -3.37598,-0.1688 -1.68799,-0.37136 -3.13966,-1.18159 -1.249111,-0.70896 -2.194386,-1.85679 -0.911514,-1.1816 -1.485431,-2.49823 -0.573917,-1.28287 -0.742716,-2.66702 -0.168799,-1.38415 -0.202558,-2.76831 0,-0.37135 0,-1.31663 0,-0.94527 0,-2.16062 0,-1.21536 0,-2.56575 0,-1.35039 0,-2.56574 0.03376,-1.21536 0.03376,-2.12687 0,-0.94528 0,-1.31663 0,-0.1688 0.03376,-0.5064 0.06752,-0.37136 0.168799,-0.5064 0.405118,-0.43887 1.080314,-0.50639 0.270078,-0.0338 0.911514,-0.0338 0.675196,0 1.384152,0.0675 0.708952,0.0338 1.350392,0.10127 0.64144,0.0338 0.91151,0.10128 0.37136,0.0675 0.6752,0.23632 0.3376,0.13504 0.60768,0.40512 0.27007,0.27008 0.37135,0.60768 0.10128,0.33759 0.1688,0.70895 0.0675,0.47264 0.10128,0.94528 0.0338,0.47263 0.0675,0.94527 0.10128,2.97086 -0.0338,5.90797 -0.10128,2.9371 0.0675,5.90796 0.0338,0.77648 0.10128,1.51919 0.0675,0.70896 0.23632,1.45167 0.23632,0.94528 0.81023,1.82303 0.60768,0.844 1.48544,1.31663 0.70895,0.37136 1.55295,0.30384 0.87775,-0.0675 1.65423,-0.30384 0.57391,-0.16879 1.11407,-0.43887 0.57392,-0.27008 1.01279,-0.70896 0.91152,-0.87775 1.48544,-2.05935 0.57391,-1.18159 0.87775,-2.39694 0.43888,-1.75551 0.54016,-3.51102 0.13504,-1.78927 0.1688,-3.6123 0,-0.3376 0,-1.28287 0.0338,-0.97904 0.0338,-2.05935 0,-1.08031 0,-2.02559 0,-0.97903 0,-1.28287 -0.0338,-0.1688 -0.0675,-0.30384 -0.0338,-0.1688 -0.0675,-0.3376 -0.0675,-0.47263 0.1688,-0.77647 0.27007,-0.30384 0.60767,-0.37136 0.37136,-0.10128 0.70896,0.10128 0.37136,0.1688 0.5064,0.64144 0.0675,0.23631 0.10127,0.87775 0.0338,0.60768 0.0338,1.31663 0.0338,0.6752 0.0338,1.31664 0,0.60767 0,0.84399 0,1.82303 -0.0338,3.64606 0,1.78927 -0.16879,3.6123 -0.1688,1.45167 -0.43888,2.86958 -0.27008,1.41791 -0.77648,2.7683 -0.57391,1.45168 -1.62047,2.73455 -1.04655,1.28287 -2.46446,2.02559 -0.97904,0.54015 -2.09311,0.77647 -1.11407,0.23632 -2.26191,0.3376 z m 19.00672,-0.0675 q -0.3376,0.1688 -0.70895,0.20256 -0.37136,0.0675 -0.74272,0.0675 -0.70896,0.0338 -1.41791,0 -0.70896,0 -1.45167,-0.0675 -0.6752,0 -1.21536,-0.20256 -0.57391,-0.23632 -0.67519,-0.77648 0,-0.33759 0.0338,-0.50639 0.1688,-4.35502 0.27008,-8.64251 0.10128,-4.32126 0,-8.67627 0,-0.23632 -0.0338,-0.91152 0,-0.70895 -0.0338,-1.45167 -0.0338,-0.77647 -0.0338,-1.45167 0,-0.70895 0,-0.94527 0.0675,-0.3376 0.27008,-0.64144 0.20255,-0.30384 0.50639,-0.43888 0.3376,-0.13503 1.04656,-0.16879 0.70895,-0.0675 1.48543,-0.0675 0.81023,0 1.51919,0.0338 0.74271,0.0338 1.08031,0.0675 0.20256,0.0675 0.37136,0.13503 0.20256,0.0338 0.37136,0.1688 0.13504,0.10128 0.20256,0.27008 0.0675,0.1688 0.13504,0.3376 0.13504,0.54016 0.13504,1.89055 0,1.35039 -0.0338,2.90334 -0.0338,1.51919 -0.10128,2.90334 -0.0675,1.3504 -0.0675,1.89055 -0.0338,2.09311 -0.0675,4.18622 0,2.05935 -0.0675,4.15245 0,0.30384 0,1.0128 0,0.70895 0,1.51919 0,0.77647 -0.0338,1.48543 -0.0338,0.70896 -0.10128,0.97903 -0.1688,0.54016 -0.64144,0.74272 z m 15.12436,0.10128 q -1.48543,0.37136 -3.07214,0.37136 -1.55295,0 -3.03838,-0.47264 -0.91152,-0.30384 -1.78927,-0.81024 -0.844,-0.50639 -1.51919,-1.21535 -0.70896,-0.77647 -1.14783,-1.72175 -0.43888,-0.97903 -0.6752,-1.99183 -0.0675,-0.27008 -0.10128,-0.50639 -0.0338,-0.27008 0.0338,-0.54016 0.0675,-0.47264 0.37136,-0.74272 0.30384,-0.20255 0.64143,-0.23631 0.3376,-0.0338 0.60768,0.10127 0.30384,0.13504 0.47264,0.40512 0.1688,0.27008 0.13504,0.64144 -0.0675,0.60767 0.1688,1.21535 0.27007,0.57392 0.57391,1.11407 0.3376,0.70896 0.91152,1.24912 0.57391,0.50639 1.24911,0.84399 0.70896,0.3376 1.48543,0.43888 0.77648,0.10128 1.55295,-0.0675 0.57392,-0.10128 1.08032,-0.40512 0.54015,-0.30384 0.81023,-0.81023 0.30384,-0.54016 0.30384,-1.14784 0,-0.64143 -0.3376,-1.18159 -0.43888,-0.77647 -1.04655,-1.41791 -0.57392,-0.6752 -1.21536,-1.28287 -0.91151,-0.81024 -1.89054,-1.51919 -0.94528,-0.74272 -1.92431,-1.51919 -1.28288,-0.97904 -2.22815,-2.36319 -0.94527,-1.41791 -1.28287,-3.03838 -0.1688,-0.87776 -0.13504,-1.78927 0.0675,-0.94528 0.37136,-1.78927 0.37135,-0.97904 1.01279,-1.82303 0.6752,-0.844 1.55295,-1.45167 0.94528,-0.6752 2.05935,-1.08032 1.14783,-0.43887 2.32942,-0.54015 1.3504,-0.13504 2.73455,0.10128 1.41791,0.20256 2.5995,0.87775 1.1816,0.6752 2.09311,1.72175 0.91152,1.04656 1.45167,2.29567 0.1688,0.40512 0.30384,0.84399 0.13504,0.40512 0.20256,0.844 0.0675,0.27008 -0.0338,0.57391 -0.0675,0.30384 -0.27008,0.47264 -0.23632,0.23632 -0.54016,0.30384 -0.30383,0.0675 -0.57391,0.0338 -0.27008,-0.0675 -0.5064,-0.27008 -0.20256,-0.20256 -0.27008,-0.5064 -0.0338,-0.16879 -0.0338,-0.33759 0,-0.20256 -0.0675,-0.37136 -0.30384,-0.97904 -0.91151,-1.82303 -0.57392,-0.87776 -1.41791,-1.45167 -0.37136,-0.27008 -0.81024,-0.43888 -0.40512,-0.20256 -0.87775,-0.27008 -1.08032,-0.1688 -2.12687,0.3376 -1.01279,0.47264 -1.28287,1.48543 -0.10128,0.40512 -0.0675,0.844 0.0338,0.40511 0.1688,0.81023 0.1688,0.60768 0.50639,1.18159 0.3376,0.57392 0.74272,1.08032 1.51919,2.02559 3.47726,3.67982 0.70895,0.60767 1.35039,1.28287 0.64144,0.64143 1.21535,1.35039 0.43888,0.5064 0.77648,1.08031 0.37136,0.54016 0.60767,1.14784 0.40512,0.94527 0.40512,2.02559 0,1.08031 -0.37136,2.05934 -0.54015,1.51919 -1.72175,2.56575 -0.64143,0.57391 -1.45167,0.94527 -0.77647,0.37136 -1.62047,0.60768 z m 24.6446,1.04655 q -2.53198,0.23632 -5.06397,0.3376 -2.49822,0.10128 -5.03021,-0.23632 -1.38415,-0.1688 -2.73454,-0.74271 -1.35039,-0.54016 -2.32943,-1.51919 -1.01279,-1.0128 -1.55295,-2.29567 -0.50639,-1.28287 -0.50639,-2.59951 0,-1.35039 0.47263,-2.63326 0.5064,-1.28287 1.51919,-2.29567 1.28288,-1.31663 2.76831,-2.12686 -0.57392,-0.27008 -1.14784,-0.60768 -0.54015,-0.3376 -0.94527,-0.81024 -0.70896,-0.77647 -0.87776,-1.78926 -0.10127,-0.47264 -0.0675,-0.94528 0.0675,-0.5064 0.20255,-0.97903 0.20256,-0.70896 0.57392,-1.3504 0.40512,-0.64143 0.87776,-1.21535 0.77647,-0.97903 1.78926,-1.72175 1.04656,-0.77647 2.19439,-1.28287 0.94528,-0.47264 1.95807,-0.70896 1.04655,-0.27007 2.09311,-0.20255 0.54015,0.0337 1.31663,0.23631 0.77648,0.20256 1.55295,0.5064 0.81024,0.30384 1.45167,0.70896 0.6752,0.40511 0.97904,0.84399 0.23631,0.27008 0.27007,0.54016 0.0675,0.37136 -0.10127,0.64143 -0.13504,0.27008 -0.40512,0.43888 -0.23632,0.13504 -0.57392,0.13504 -0.30384,0 -0.57392,-0.23632 -0.10127,-0.10128 -0.16879,-0.20256 -0.0675,-0.10128 -0.13504,-0.23631 -0.0675,-0.10128 -0.30384,-0.20256 -0.23632,-0.13504 -0.3376,-0.20256 -0.27008,-0.10128 -0.54016,-0.20256 -0.27008,-0.13504 -0.57391,-0.20256 -1.28288,-0.27008 -2.53199,0.30384 -1.21535,0.54015 -1.82303,1.68799 -0.57391,1.01279 -0.70895,2.22814 -0.10128,1.21536 0.10128,2.36319 0.0675,0.30384 0.20255,0.74272 0.13504,0.40511 0.47264,0.47263 0.20256,0.0338 0.81024,0.0338 0.60767,-0.0338 1.28287,-0.0675 0.70896,-0.0338 1.31663,-0.0338 0.64144,0 0.844,0.0338 0.1688,0.0675 0.33759,0.1688 0.20256,0.10128 0.30384,0.27008 0.1688,0.27008 0.13504,0.74272 -0.0338,0.47263 -0.20256,0.74271 -0.13504,0.20256 -0.40511,0.27008 -0.27008,0.0675 -0.60768,0.10128 -0.3376,0 -0.6752,0 -0.30383,-0.0338 -0.54015,-0.0338 -0.10128,0 -0.43888,0 -0.3376,0 -0.70896,0 -0.33759,0 -0.67519,0 -0.3376,0 -0.43888,0.0338 -0.30384,0.0338 -0.60768,0.20256 -0.27007,0.13504 -0.50639,0.3376 -0.40512,0.40511 -0.70896,0.91151 -0.30384,0.47264 -0.47264,1.04656 -0.30383,0.97903 -0.33759,2.05934 -0.0338,1.08032 0.0675,2.12687 0.10127,0.91152 0.43887,1.82303 0.3376,0.91151 1.0128,1.58671 0.57391,0.57392 1.38415,0.844 0.84399,0.27007 1.65423,0.33759 0.10128,0.0338 0.5064,0.0675 0.43887,0.0338 0.54015,0.0675 0.23632,0 0.91152,-0.0338 0.70895,-0.0338 1.45167,-0.10128 0.77647,-0.0675 1.45167,-0.10128 0.70896,-0.0675 0.94527,-0.10128 0.47264,-0.0338 0.74272,0.27008 0.27008,0.27008 0.30384,0.6752 0.0338,0.37136 -0.20256,0.70895 -0.20256,0.3376 -0.6752,0.37136 z" id="text1-9" aria-label="Guise" />
      </g>
    </g>
  </g>
</svg>
