<?xml version="1.0" encoding="UTF-8" standalone="no"?>
<svg width="177.07991mm" height="289.99286mm" viewBox="0 0 177.07991 289.99286" version="1.1" id="svg1" xml:space="preserve" inkscape:version="1.3 (0e150ed, 2023-07-21)" sodipodi:docname="guise.svg"
  xmlns:inkscape="http://www.inkscape.org/namespaces/inkscape"
  xmlns:sodipodi="http://sodipodi.sourceforge.net/DTD/sodipodi-0.dtd"
  xmlns="http://www.w3.org/2000/svg"
  xmlns:svg="http://www.w3.org/2000/svg">
  <sodipodi:namedview id="namedview1" pagecolor="#ffffff" bordercolor="#000000" borderopacity="0.25" inkscape:showpageshadow="2" inkscape:pageopacity="0.0" inkscape:pagecheckerboard="0" inkscape:deskcolor="#d1d1d1" inkscape:document-units="mm" inkscape:zoom="0.77737103" inkscape:cx="477.89278" inkscape:cy="565.36709" inkscape:window-width="1392" inkscape:window-height="1212" inkscape:window-x="0" inkscape:window-y="25" inkscape:window-maximized="0" inkscape:current-layer="layer1" />
  <defs id="defs1" />
  <g inkscape:label="Layer 1" inkscape:groupmode="layer" id="layer1" transform="translate(-16.140248,-5.5578454)">
    <g id="g1" transform="translate(-2.7228525,1.0210697)" inkscape:export-filename="g2.svg" inkscape:export-xdpi="96" inkscape:export-ydpi="96">
      <path fill="#161d22" d="m 55.779119,90.535413 c 1.690687,-1.71979 3.518958,-3.65918 5.124979,-5.21758 C 71.889598,74.655124 83.732348,65.733375 96.699577,57.4625 106.21664,51.392958 115.88981,45.588 124.94914,38.833187 q 7.73642,-5.767916 14.07319,-13.041312 0.66939,-0.767292 1.04246,-1.288521 a 0.16139583,0.16139583 0 0 1 0.28045,0.156104 q -0.51329,1.256771 -1.09537,2.801938 -4.445,11.784541 -13.7504,20.259145 C 115.32624,56.988896 102.80616,63.280687 90.93166,70.019625 Q 77.493473,77.650208 66.060827,86.643393 C 47.648473,101.12668 35.123098,120.53652 29.670036,143.36741 c -3.164417,13.24769 -4.122209,26.13025 -3.704167,39.24565 q 0.03969,1.18269 -0.343958,0.0635 c -3.645958,-10.67594 -5.230813,-21.98952 -6.278563,-33.27136 -0.14552,-1.55575 -0.20902,-3.56923 -0.343958,-5.36045 Q 18.90943,142.87 18.90414,141.89368 18.8327,125.84141 18.88562,109.7865 q 0.0053,-1.93146 0.100542,-3.74386 0.0979,-1.87589 0.209021,-3.74914 0.550333,-9.231317 1.920875,-16.938627 0.574146,-3.2385 1.939396,-8.591019 C 27.918494,57.679458 37.739827,40.381 52.17814,26.921646 67.386389,12.745271 87.886306,3.9028957 108.85189,4.5722917 c 11.38502,0.362479 22.46577,2.989792 31.95902,9.5408753 q 0.12171,0.08467 0.0291,0.201083 -3.09297,3.902604 -6.8236,7.201958 C 122.80072,31.438083 108.69049,38.417792 97.12291,46.394979 82.557598,56.443854 69.91316,69.379333 60.00716,84.026663 q -2.227791,3.29407 -4.339166,6.41879 -0.439209,0.65353 0.111125,0.09 z" id="path2" style="fill:#666666;stroke-width:0.264583" />
      <path fill="#161d22" d="m 181.9642,107.48462 c 2.34686,13.58106 2.82046,27.43994 2.57704,41.30675 q -0.0556,3.1115 -0.26723,6.22035 -0.96573,14.27957 -3.89202,27.58017 c -2.26218,10.29229 -5.68325,20.51844 -11.1072,29.83442 q -1.03188,1.77006 -1.96586,3.3946 -0.29898,0.52123 -0.26194,-0.0794 0.55034,-8.83973 2.21986,-17.72709 1.94204,-10.32933 3.18293,-18.796 1.1139,-7.57766 1.60073,-15.87764 0.1614,-2.7649 0.11642,-5.28638 c -0.0767,-4.29418 -0.26723,-8.53546 -1.04775,-12.76879 -0.76465,-4.15131 -2.61937,-8.509 -7.2681,-9.41387 a 0.1825625,0.1825625 0 0 1 -0.14023,-0.23019 q 1.74625,-6.07748 2.43416,-12.31106 0.28575,-2.59292 0.11378,-5.45042 c -0.0952,-1.59808 -0.80434,-3.39725 -2.27013,-4.11427 -1.79652,-0.87577 -3.79412,0.44979 -4.48469,2.19869 q -0.0212,0.0503 -0.0635,0.0873 l -0.082,0.0688 a 0.06879167,0.06879167 0 0 1 -0.11377,-0.0529 c 0.0873,-7.53533 -0.0317,-15.09712 -0.90223,-22.574247 q -0.0503,-0.41539 -0.43656,-0.68527 -2.49502,-1.74095 -5.12763,-3.26231 c -3.20145,-1.84944 -6.64368,-3.31258 -10.36372,-2.79929 q -2.10609,0.2884 -5.16203,1.18533 -5.25991,1.53988 -10.52777,3.05065 c -2.73843,0.78581 -5.76527,1.80181 -8.06185,3.54277 a 0.15610416,0.15345833 54.1 0 1 -0.2196,-0.037 c -0.47096,-0.67734 -0.75142,-1.41023 -0.84403,-2.25954 -0.51329,-4.65667 2.83634,-6.93738 6.73894,-8.19415 q 6.1304,-1.97644 12.30577,-3.81529 2.49238,-0.740834 4.70959,-0.359834 c 3.01095,0.521224 5.79702,2.243664 8.84766,4.204224 q 2.96069,1.89707 5.88963,3.84175 0.41539,0.27517 0.67204,0.48155 0.29369,0.23812 0.21431,-0.12965 C 155.67785,73.125833 147.93614,58.237729 134.51118,49.771062 a 0.174625,0.17197916 34.5 0 1 -0.0476,-0.248708 c 2.42887,-3.312583 4.26243,-6.024562 6.33941,-10.265833 q 0.0635,-0.129646 0.20109,-0.08202 c 10.10708,3.608917 18.7907,9.734021 26.33398,17.570979 q 5.46099,5.672666 9.24983,11.186583 5.75998,8.379354 9.75519,17.73502 0.25135,0.59267 0.33866,0.82021 0.29634,0.78581 0.20373,-0.0476 C 185.07306,69.83177 176.51114,54.372166 164.37206,43.175 q -8.58309,-7.913688 -19.13467,-12.660312 a 0.33602083,0.33866666 20 0 1 -0.18521,-0.399521 q 1.44727,-5.032375 2.16958,-10.2235 a 0.10583333,0.1031875 14.7 0 1 0.14288,-0.08202 c 19.09498,7.249583 33.42481,23.492354 40.97337,42.137541 q 5.13557,12.681479 6.7945,25.394705 c 0.55034,4.22011 0.79905,9.18898 0.80434,13.890627 q 0.0106,13.79273 0.003,27.58281 c -0.005,11.03842 -0.66939,22.57689 -6.23093,32.30562 q -0.10319,0.18521 -0.26459,0.21961 a 0.14552083,0.14552083 0 0 1 -0.17727,-0.15611 q 0.0767,-0.88106 0.10054,-1.7436 c 0.31486,-11.29242 0.52123,-22.77533 -1.17475,-33.86667 q -0.8255,-5.40543 -2.69081,-10.78441 c -0.87842,-2.53736 -2.02935,-4.97152 -3.27025,-7.39246 q -0.42862,-0.84138 -0.26723,0.0873 z" id="path3" style="fill:#666666;stroke-width:0.264583" />
      <path fill="#161d22" d="m 99.099347,146.85727 c 3.204103,-1.80711 5.543023,-0.53711 8.334373,1.16416 0.67998,0.41275 1.37054,0.12965 2.00554,-0.35189 1.45786,-1.10861 2.78871,-1.94998 4.68048,-1.64307 5.16202,0.84403 8.36613,6.24153 12.97782,8.62807 q 0.6985,0.36248 1.40229,0.71966 0.11377,0.0582 0.005,0.127 c -2.61144,1.66952 -5.00856,2.286 -7.91104,1.38377 -3.15648,-0.97895 -6.30767,-1.9685 -9.54881,-2.10872 -3.34698,-0.14288 -11.168068,-0.40746 -13.184193,3.09033 -0.799041,1.38906 2.214563,3.53483 3.204103,3.98727 5.18319,2.36802 12.23963,1.43669 17.48896,-0.26723 q 1.06892,-0.3466 0.254,0.42598 c -2.08756,1.97379 -3.66448,4.16719 -4.38415,6.94267 q -0.0556,0.2196 -0.27252,0.15875 c -5.00327,-1.37584 -13.26091,-1.02923 -15.628934,4.76514 -1.838854,4.50321 2.275414,9.84515 5.886984,12.00415 q 3.15118,1.88119 6.99822,2.01612 c 6.88182,0.23813 13.50963,-2.27541 19.32253,-5.77585 q 8.94291,-5.38163 16.67668,-12.74498 c 3.83382,-3.6486 6.74688,-6.95854 8.18357,-12.192 1.38641,-5.06413 2.02141,-10.38754 2.44739,-15.61306 a 0.16139583,0.16139583 0 0 1 0.14817,-0.14552 c 0.95779,-0.0609 1.97379,-0.18786 2.8866,-0.0238 q 4.58523,0.83344 6.35529,5.26786 0.42334,1.06098 0.66146,3.77825 0.53181,6.10394 0.26723,11.63637 -0.20637,4.30477 -0.82285,9.66259 c -1.68804,14.60764 -6.75217,30.86629 -6.47171,46.56137 q 0.23548,13.35088 6.46642,25.02165 0.24077,0.44979 -0.23019,0.25135 -0.20373,-0.0873 -0.5715,-0.29898 c -6.64898,-3.81794 -11.67342,-9.90335 -15.15004,-16.65552 -5.03767,-9.78429 -6.89505,-20.68512 -7.0194,-31.60183 q -0.0608,-5.18848 0.12171,-10.30552 0.005,-0.18521 -0.0741,-0.0159 -0.66146,1.39965 -1.43669,2.80988 c -6.86859,12.48039 -16.9545,23.06902 -28.42948,31.41398 q -3.39461,2.46856 -6.91092,4.85775 a 0.56620833,0.56885416 72.9 0 0 -0.25135,0.47095 l -0.0265,31.6283 q 0,0.23547 -0.23548,0.24341 c -4.72546,0.17992 -9.469438,0.21696 -14.229292,-0.23548 q -8.434916,-0.80168 -16.422687,-3.50043 c -26.744083,-9.03288 -42.621729,-34.6763 -44.661666,-61.99717 -0.584729,-7.82638 -0.156104,-15.70567 1.076854,-23.63523 3.291417,-21.18254 12.901083,-40.894 27.942646,-55.99112 8.702145,-8.73919 18.811874,-16.173977 29.008916,-23.106067 q 8.252354,-5.61181 16.502059,-11.226267 0.36513,-0.248708 0.67734,-0.513292 a 0.21960416,0.21960416 0 0 1 0.36248,0.169334 l -0.0106,64.309622 a 0.16404166,0.16404166 0 0 1 -0.17198,0.16404 q -0.8255,-0.0317 -1.67745,0.21696 -3.45017,1.01335 -5.4028,4.03225 -0.637643,0.98425 -1.264705,1.98437 -0.08467,0.13494 0.05556,0.0556 z" id="path4" style="fill:#666666;stroke-width:0.264583" />
      <path fill="#161d22" d="m 152.42347,105.11925 q -0.19579,0.15081 0.0503,0.18785 c 1.9103,0.27781 4.3868,0.37042 6.18596,-0.4154 a 0.11377083,0.11377083 0 0 1 0.15875,0.11642 q -0.0106,0.0873 -0.11641,0.19579 c -7.72055,7.68879 -19.92048,8.51959 -29.04861,2.90777 -2.80723,-1.72773 -5.72294,-3.02418 -8.90058,-1.50548 q -0.9869,0.47361 -0.40746,-0.45508 c 1.93146,-3.09298 5.24933,-3.10092 8.49048,-2.20398 3.77031,1.04511 6.73364,1.85209 10.36108,1.77536 6.25475,-0.1323 11.9089,-2.8919 17.28259,-5.797017 q 0.60589,-0.32809 0.30691,0.293677 c -0.76994,1.60338 -2.78871,3.69623 -4.36298,4.90009 z" id="path5" style="fill:#666666;stroke-width:0.264583" />
      <path fill="#161d22" d="m 114.98493,137.23702 c -0.8546,-0.55563 -1.48167,-0.86519 -2.52677,-0.53446 -0.82285,0.25929 -1.50812,0.54239 -2.24367,0.29104 q -0.127,-0.0423 -0.14816,-0.17727 c -0.52123,-3.14325 1.66687,-6.50346 5.11175,-5.67002 3.65389,0.88106 3.91054,8.75241 -0.19315,6.09071 z" id="path6" style="fill:#666666;stroke-width:0.264583" />
      <path fill="#fdfefe" d="m 66.272494,217.74443 q 0.142875,-0.0741 0.121708,-0.42862 c -0.489479,-8.44815 -0.111125,-16.89365 3.786187,-24.58773 q 0.227542,-0.44979 0.232834,0.0556 c 0.01323,2.1299 0.322791,4.72017 0.460375,6.41879 0.590021,7.36071 1.039812,14.86165 0.105833,21.94984 q -0.889,6.76539 -3.294062,13.1445 -0.3175,0.84137 -0.621771,1.64306 a 0.1031875,0.1031875 0 0 1 -0.182563,0.0212 C 57.631202,222.2741 50.791723,206.59224 48.614202,190.20131 q -1.232958,-9.29217 0.28575,-17.92817 c 0.717021,-4.07194 2.293938,-7.91104 4.458229,-12.37985 q 0.0291,-0.0609 0.08996,-0.037 l 0.0635,0.0238 q 0.02646,0.0106 0.01852,0.037 -0.566208,1.94733 -0.79375,3.95817 -0.637645,5.56418 -0.529166,10.11766 c 0.100541,4.2545 0.473604,9.63084 1.534583,14.75846 q 2.280708,11.02783 7.228417,21.13492 2.018771,4.12221 4.90802,7.77081 0.161396,0.20373 0.39423,0.0873 z" id="path7" style="stroke-width:0.264583" />
      <path style="fill:#1a1a1a;stroke-width:0.264583" d="m 166.60454,215.10535 0.68071,27.73906" id="path8" />
      <path style="fill:#cccccc;stroke-width:0.643193" d="m 614.95769,906.09725 c -12.40317,-29.41434 -17.71009,-61.44807 -15.84985,-95.67343 1.37382,-25.2759 4.45226,-46.56226 14.09234,-97.44382 7.5521,-39.86089 9.78738,-54.66578 12.04176,-79.75599 1.99544,-22.2084 1.32631,-57.73198 -1.32868,-70.53793 -2.43619,-11.75056 -10.57584,-20.5471 -22.16167,-23.95017 -3.70176,-1.0873 -12.64178,-1.37897 -14.09208,-0.45974 -0.58784,0.37258 -1.24009,4.21041 -2.04793,12.05003 -4.02004,39.01183 -9.6701,58.46899 -21.6442,74.53629 -10.47644,14.05769 -37.3189,37.97228 -61.36359,54.67029 -34.09954,23.68065 -60.61355,33.95277 -87.74398,33.99387 -10.5623,0.016 -17.17901,-1.16675 -24.40574,-4.36278 -17.41215,-7.70048 -31.43724,-27.54873 -29.63862,-41.94446 0.92562,-7.40832 7.0409,-15.98915 14.48796,-20.32917 9.83981,-5.73446 26.26068,-7.56171 41.07608,-4.57077 5.17768,1.04527 6.51119,0.86689 6.53764,-0.87456 0.03,-1.97725 3.48749,-9.37778 6.35172,-13.59555 1.51153,-2.22583 4.60424,-6.01441 6.87267,-8.41908 4.13123,-4.37931 5.11614,-6.20909 2.99885,-5.5713 -17.38779,5.23779 -24.84554,6.45159 -39.3956,6.4119 -10.70664,-0.0292 -12.52624,-0.19958 -18.15734,-1.70007 -3.44205,-0.91718 -7.78352,-2.4337 -9.64772,-3.37003 -6.14057,-3.08423 -11.47252,-8.27293 -12.42567,-12.0918 -0.40082,-1.60596 -0.0484,-2.20628 3.06589,-5.22272 3.78136,-3.66255 7.58181,-5.44356 15.61785,-7.31901 3.54476,-0.82728 8.05917,-1.05392 21.22539,-1.06559 19.06337,-0.0169 21.04602,0.26531 38.87515,5.5332 12.93189,3.82091 16.90503,4.31064 23.27917,2.86935 4.69191,-1.0609 13.46985,-5.19703 13.88521,-6.54264 0.11852,-0.38394 -1.02033,-1.25225 -2.53077,-1.92958 -4.71424,-2.11405 -11.47835,-6.9057 -19.08305,-13.51832 -12.5537,-10.91601 -16.29413,-13.71989 -22.26604,-16.69096 -11.4691,-5.70597 -17.85332,-5.24949 -27.94106,1.99784 -1.85514,1.33278 -3.84513,2.21696 -4.98963,2.21696 -1.07428,0 -4.1104,-1.25749 -6.9682,-2.88608 -2.78543,-1.58735 -6.52516,-3.38064 -8.3105,-3.98509 -4.02034,-1.36113 -11.25439,-1.35139 -14.98437,0.0202 -1.50346,0.55285 -2.73357,0.79708 -2.73357,0.54273 0,-0.65267 4.2942,-6.99744 6.94313,-10.25862 4.20667,-5.17896 13.63491,-10.31314 20.87499,-11.36753 l 3.05517,-0.44493 v -122.1294 c 0,-67.17117 -0.23061,-122.27192 -0.51247,-122.44612 -0.44329,-0.27397 -47.53784,31.43482 -78.84371,53.08551 -60.33671,41.72801 -101.09435,78.29985 -129.96547,116.61804 -39.50286,52.4288 -64.96819,115.3002 -73.96378,182.60932 -2.87867,21.53952 -3.25781,27.89807 -3.24527,54.42623 0.0142,30.06924 1.12644,40.69589 5.73357,63.75252 1.05406,5.27502 3.10603,12.00048 1.50931,9.62474 -7.19588,-10.70665 -17.373296,-35.60809 -18.744882,-40.20455 l -11.2882,-34.7807 -0.220624,-16.62883 c -0.767495,-57.84754 8.167937,-115.2335 23.727726,-163.35611 11.00052,-34.0219 29.37588,-71.2775 49.11724,-99.58401 13.83102,-19.83185 26.07601,-34.37527 44.35775,-52.68382 18.11034,-18.13692 31.65713,-29.52395 57.46812,-48.30606 25.71671,-18.7135 50.94612,-34.49395 91.0033,-56.92057 12.98373,-7.26915 28.3825,-15.98098 34.21949,-19.35962 66.67601,-38.59436 100.55148,-70.0863 121.58535,-113.03043 5.57169,-11.37551 12.34407,-28.734214 11.52861,-29.549672 -0.4582,-0.4582 -1.20615,0.03303 -2.40318,1.578343 -6.17492,7.971499 -26.5903,28.499479 -38.09092,38.300989 -19.39935,16.53327 -46.03659,35.03447 -94.87104,65.89377 -36.73364,23.21259 -47.09751,29.94985 -62.67266,40.74169 -41.1792,28.5326 -77.22614,58.24364 -107.28597,88.42853 -6.45894,6.48582 -11.74354,11.59737 -11.74354,11.35901 0,-0.84063 20.86683,-31.00865 28.91531,-41.80402 33.61715,-45.09052 74.63243,-85.30564 119.47717,-117.14636 12.59286,-8.94118 24.39857,-16.55291 53.24869,-34.33205 39.75912,-24.50191 49.84141,-31.11207 68.17851,-44.6993 19.96492,-14.793384 33.98912,-30.971736 45.94007,-43.431457 l 3.10343,-3.717943 11.41669,9.247896 c 2.43457,1.972083 10.19097,6.713345 12.39151,13.429482 2.6632,8.128177 -5.33534,28.395752 -7.92074,37.397002 -0.3429,1.19384 0.71412,1.88929 9.47071,6.23111 27.14193,13.45792 50.66871,30.45349 72.24645,52.19027 34.85712,35.11403 59.56381,78.39518 70.74476,123.93058 2.01836,8.21999 5.48969,26.92074 5.46183,29.42405 -0.006,0.58499 -1.54945,-2.40963 -3.42878,-6.65471 -8.57433,-19.368 -19.1953,-38.60091 -31.6119,-57.24422 -12.97803,-19.48627 -24.52467,-33.48419 -42.4523,-51.46463 -22.45759,-22.52375 -45.93708,-39.64152 -71.39448,-52.05027 -9.48495,-4.62328 -22.53591,-10.00875 -24.25483,-10.00875 -0.48137,0 -1.8335,1.9537 -3.00475,4.34155 -3.40812,6.94826 -10.42839,18.5052 -16.40792,27.01116 -3.04524,4.33188 -5.5368,8.14331 -5.5368,8.46986 0,0.32653 1.08539,1.24716 2.41197,2.04583 10.70856,6.44708 29.16168,22.93399 39.52644,35.31482 21.7323,25.95949 38.37303,59.69705 48.14924,97.61817 1.39272,5.40224 2.53221,10.09341 2.53221,10.42481 0,0.3314 -5.8611,-3.24016 -13.02466,-7.9368 -23.18123,-15.19826 -29.7734,-18.93802 -38.90419,-22.07044 -4.32341,-1.48319 -6.02988,-1.71303 -12.71209,-1.71214 -8.57611,10e-4 -5.87486,-0.70553 -47.91792,12.53601 -20.19475,6.36037 -27.13358,10.0507 -31.84717,16.93749 -3.14002,4.58772 -4.17167,8.05088 -4.17167,14.00394 0,5.60402 0.77117,9.02198 2.57513,11.41356 l 1.15922,1.5368 2.52636,-1.67186 c 3.49153,-2.31059 11.27996,-6.18091 16.05617,-7.97883 4.709,-1.77263 52.19101,-15.67643 61.93906,-18.13716 5.70594,-1.44037 8.15544,-1.7061 15.76065,-1.70979 8.47618,-0.004 9.35215,0.11651 14.92396,2.05518 7.147,2.48675 14.1808,5.96637 22.92232,11.33969 13.49697,8.29645 15.17092,9.56567 15.81353,11.99007 1.64191,6.19449 3.81474,47.7213 3.92072,74.93204 0.0408,10.4894 0.0872,10.87107 1.13953,9.38033 6.61823,-9.37562 13.39922,-11.23283 19.549,-5.35418 4.00057,3.82417 5.18434,7.53761 5.53286,17.3561 0.47382,13.34829 -2.00451,31.88184 -6.95919,52.04242 -1.40463,5.71544 -2.55388,10.67386 -2.55388,11.01873 0,0.34487 1.37483,0.97223 3.05517,1.39413 7.45173,1.87099 15.12243,8.67813 19.08292,16.9346 6.38998,13.32124 9.37852,34.97889 9.37827,67.96352 -2.7e-4,36.209 -4.10805,70.82341 -16.64363,140.24842 -2.4592,13.61962 -5.22017,30.40697 -6.13548,37.30522 -3.7274,28.09141 -3.79863,29.35677 -5.56604,98.891 -0.45183,17.77626 -0.9884,32.31977 -1.19237,32.31887 -0.20397,-9e-4 -1.49948,-2.6782 -2.87893,-5.94954 z M 432.58326,524.18365 c 2.35078,-1.2581 3.35947,-4.33164 3.04013,-9.26354 -0.64887,-10.02163 -5.93596,-15.93544 -14.29715,-15.99191 -5.93141,-0.0401 -11.27382,3.36513 -14.10761,8.99201 -1.62302,3.22273 -2.62455,10.45105 -1.7525,12.64823 0.67162,1.69216 0.93669,1.80986 3.45259,1.5331 1.49882,-0.16488 4.36879,-0.68331 6.37771,-1.15206 l 3.65259,-0.85228 4.38733,2.34213 c 4.51764,2.41169 7.09237,2.89739 9.24691,1.74432 z m 108.98567,-98.71942 c 17.1039,-2.5674 33.04297,-9.96241 45.24965,-20.99377 3.00714,-2.7176 4.09953,-4.41547 2.82907,-4.39714 -0.26532,0.004 -1.90322,0.43799 -3.63979,0.96479 -3.03234,0.9199 -18.36039,1.41583 -19.15642,0.6198 -0.18592,-0.18593 1.97127,-2.57378 4.79376,-5.30635 6.87307,-6.65411 13.15756,-15.581 10.96894,-15.581 -0.24243,0 -6.24825,2.87609 -13.34627,6.39132 -19.55699,9.68541 -32.47552,13.94371 -47.06781,15.51481 -11.62816,1.25196 -21.65565,0.0249 -40.71317,-4.98228 -9.50272,-2.49673 -12.28994,-2.97789 -17.42277,-3.00778 -5.3886,-0.0314 -6.58498,0.18057 -10.12868,1.7944 -2.3986,1.09233 -5.0618,2.962 -6.60705,4.63839 -2.64352,2.86788 -4.32697,5.75596 -3.71301,6.36992 0.18833,0.18834 2.6232,-0.42577 5.41083,-1.36465 9.15643,-3.08396 16.43242,-1.49683 30.62977,6.68134 13.02578,7.50329 24.72066,11.48709 38.75799,13.20269 5.02655,0.61434 17.36839,0.32412 23.15496,-0.54449 z" id="path11" transform="matrix(0.26458333,0,0,0.26458333,2.7228525,-1.0210697)" sodipodi:nodetypes="sssssssssssssssssssssssssssssssssssssssscssssssssscsssssscssssssssssssscsssssscsssssssssssssscsssscsssssssssssssssssssssssssssscsssscsssssssssssssss" />
      <path style="fill:#cccccc;stroke-width:0.643193" d="m 237.61849,887.49934 c -16.44461,-25.21979 -32.23012,-55.93797 -42.41716,-82.54266 -16.62914,-43.42904 -25.24412,-89.3781 -23.17347,-123.59863 1.56796,-25.91284 4.72504,-39.48826 14.25303,-61.28792 2.18021,-4.98822 4.08591,-8.94757 4.23492,-8.79857 0.149,0.149 -0.15589,2.3996 -0.67752,5.00134 -1.99687,9.95969 -2.66918,20.69422 -2.63272,42.03566 0.0379,22.19598 0.77205,32.32903 3.56479,49.2043 6.89587,41.66853 24.4545,87.26063 44.15424,114.64924 5.78252,8.03946 5.68707,8.29313 5.68774,-15.11505 6e-4,-21.10674 0.59258,-28.16516 3.57379,-42.61157 1.71132,-8.29279 5.71736,-20.47598 8.8827,-27.01412 l 2.49114,-5.14555 0.0547,3.2592 c 0.0301,1.79256 0.62084,9.8968 1.31275,18.00941 2.15289,25.24205 2.78804,40.6161 2.42392,58.67111 -0.47446,23.52553 -2.8963,40.59131 -8.48822,59.81315 -2.71783,9.34236 -7.48759,22.65349 -8.11739,22.65349 -0.24403,0 -2.5513,-3.23227 -5.12727,-7.18283 z" id="path12" transform="matrix(0.26458333,0,0,0.26458333,2.7228525,-1.0210697)" />
    </g>
    <g id="g2" transform="translate(2.3824959,-1.7017829)" inkscape:export-filename="g2.svg" inkscape:export-xdpi="96" inkscape:export-ydpi="96">
      <path d="m 66.841549,256.74015 q -2.801336,0 -5.183781,0.99487 -2.356264,0.99487 -4.084191,2.8537 -1.701746,1.85883 -2.670433,4.50308 -0.942505,2.61807 -0.942505,5.86448 0,3.27259 1.047228,5.89066 1.047229,2.61807 2.853698,4.4769 1.806469,1.85883 4.241275,2.8537 2.434806,0.99487 5.236143,0.99487 2.042095,0 3.69148,-0.5498 1.649385,-0.57597 2.958421,-1.59702 v -10.865 h -5.86448 v -1.85883 h 11.074441 v 13.64015 q -1.361397,0.73306 -2.748974,1.30904 -1.387578,0.54979 -2.984602,0.9425 -1.597023,0.36653 -3.508215,0.5498 -1.911192,0.20944 -4.345998,0.20944 -3.848565,0 -7.121154,-1.25667 -3.246409,-1.28285 -5.628853,-3.45585 -2.356265,-2.173 -3.691481,-5.07906 -1.309035,-2.93224 -1.309035,-6.20483 0,-3.27259 1.256674,-6.25719 1.282855,-2.9846 3.586757,-5.23614 2.303903,-2.27773 5.49795,-3.61294 3.194047,-1.33522 7.042612,-1.33522 2.460987,0 4.555444,0.6807 2.094457,0.65452 3.796203,1.75411 1.727927,1.09959 3.063143,2.53953 1.335217,1.43994 2.303903,3.01078 l -2.251541,1.51848 q -1.937373,-3.77002 -4.345999,-5.52413 -2.408625,-1.75411 -5.52413,-1.75411 z m 23.196112,5.57649 v 17.01747 q 0,0.89014 0.418891,1.67556 0.418891,0.75924 1.125771,1.3614 0.706879,0.57598 1.649384,0.91633 0.968687,0.34034 2.068277,0.34034 0.706879,0 1.518481,-0.28798 0.811602,-0.31417 1.570843,-0.83779 0.759241,-0.52361 1.439939,-1.23049 0.680703,-0.70688 1.125773,-1.4923 v -17.46254 h 4.73871 v 23.903 h -4.73871 v -4.47691 q -0.62834,1.02105 -1.570845,1.93738 -0.942506,0.91632 -2.068276,1.59702 -1.09959,0.6807 -2.277722,1.07341 -1.151952,0.39271 -2.19918,0.39271 -1.570843,0 -2.958421,-0.57598 -1.361397,-0.60215 -2.382445,-1.59702 -1.021047,-1.02105 -1.623204,-2.35626 -0.575975,-1.3614 -0.575975,-2.87988 v -17.01747 z m 23.745899,-12.22639 q 0.5498,0 1.04723,0.18327 0.52362,0.18326 0.89015,0.52361 0.36653,0.31417 0.57597,0.75924 0.23563,0.41889 0.23563,0.91633 0,0.47125 -0.23563,0.91632 -0.20944,0.41889 -0.57597,0.75924 -0.36653,0.31417 -0.89015,0.52362 -0.49743,0.18326 -1.04723,0.18326 -0.54979,0 -1.04722,-0.18326 -0.49744,-0.20945 -0.86397,-0.52362 -0.36653,-0.34035 -0.60215,-0.75924 -0.20945,-0.44507 -0.20945,-0.91632 0,-0.49744 0.20945,-0.91633 0.23562,-0.44507 0.60215,-0.75924 0.36653,-0.34035 0.86397,-0.52361 0.49743,-0.18327 1.04722,-0.18327 z m -2.3039,13.09036 3.32495,-1.3614 h 1.38758 v 24.40043 h -4.71253 z m 18.14324,21.91325 q 0.96868,0 1.78028,-0.28798 0.83779,-0.31417 1.41376,-0.81161 0.60216,-0.49743 0.94251,-1.12577 0.34035,-0.62833 0.34035,-1.30903 0,-1.09959 -0.5498,-1.91119 -0.54979,-0.81161 -1.46612,-1.46612 -0.89014,-0.65452 -2.04209,-1.17814 -1.15195,-0.54979 -2.35627,-1.09959 -1.17813,-0.57597 -2.33008,-1.23049 -1.15195,-0.65452 -2.06828,-1.51848 -0.89014,-0.86396 -1.43994,-1.98973 -0.54979,-1.12578 -0.54979,-2.67044 0,-1.43994 0.60216,-2.67043 0.62833,-1.23049 1.70174,-2.12064 1.09959,-0.89014 2.59189,-1.38758 1.4923,-0.49743 3.27259,-0.49743 1.17813,0 2.22536,0.18327 1.04723,0.15708 2.01592,0.62833 0.99486,0.47126 1.98973,1.3614 0.99487,0.86396 2.06828,2.27772 l -1.72793,1.54466 q -1.3614,-2.22536 -3.06314,-3.29877 -1.67557,-1.09959 -3.58676,-1.09959 -1.02105,0 -1.85883,0.26181 -0.83778,0.23563 -1.43994,0.6807 -0.60216,0.41889 -0.94251,0.99487 -0.31416,0.57597 -0.31416,1.23049 0,1.07341 0.60215,1.88501 0.60216,0.78542 1.57084,1.43994 0.99487,0.65452 2.22537,1.20431 1.25667,0.52362 2.56571,1.09959 1.30903,0.5498 2.53952,1.20432 1.25668,0.65451 2.22536,1.51848 0.99487,0.83778 1.59703,1.96355 0.60215,1.12577 0.60215,2.61807 0,1.51848 -0.57597,2.8537 -0.5498,1.30904 -1.70175,2.27772 -1.12577,0.96869 -2.85369,1.54466 -1.70175,0.5498 -4.00565,0.5498 -1.04723,0 -2.14682,-0.18327 -1.09959,-0.15708 -2.22536,-0.62833 -1.12577,-0.47126 -2.25154,-1.33522 -1.12577,-0.89014 -2.19918,-2.3039 l 1.93737,-1.75411 q 0.86396,1.23049 1.64938,2.09446 0.81161,0.86396 1.62321,1.41376 0.83778,0.54979 1.70174,0.8116 0.89015,0.23562 1.9112,0.23562 z m 24.53132,1.64939 q -2.4348,0 -4.55544,-0.89014 -2.12064,-0.91633 -3.71766,-2.48717 -1.59703,-1.57085 -2.51335,-3.6653 -0.91633,-2.12064 -0.91633,-4.52927 0,-2.87987 0.83779,-5.31468 0.83778,-2.46099 2.38244,-4.24128 1.54466,-1.78028 3.69148,-2.77515 2.173,-1.02105 4.84343,-1.02105 2.35627,0 4.29364,0.83778 1.96355,0.81161 3.35113,2.22536 1.41376,1.38758 2.19918,3.22023 0.78542,1.80647 0.78542,3.79621 h -17.82906 q 0,2.40862 0.60215,4.4769 0.62834,2.04209 1.75411,3.53439 1.12577,1.4923 2.67044,2.35627 1.54466,0.83778 3.40349,0.83778 1.54466,0 2.95842,-0.49743 1.43994,-0.49744 2.59189,-1.30904 1.17813,-0.83778 1.98973,-1.88501 0.81161,-1.04723 1.15195,-2.173 l 1.33522,0.60216 q -0.52361,1.83265 -1.64938,3.45585 -1.12577,1.62321 -2.67044,2.82752 -1.51848,1.20431 -3.32495,1.91119 -1.80647,0.70688 -3.6653,0.70688 z m 4.73871,-16.75566 q 0,-1.36139 -0.49743,-2.51335 -0.47125,-1.17813 -1.30904,-2.04209 -0.83778,-0.86396 -1.96355,-1.33522 -1.12577,-0.49743 -2.40863,-0.49743 -1.07341,0 -2.06827,0.49743 -0.96869,0.47126 -1.72793,1.33522 -0.75924,0.86396 -1.28285,2.04209 -0.49744,1.15196 -0.60216,2.51335 z" id="text1" style="font-size:53.6181px;font-family:'Khmer MN';-inkscape-font-specification:'Khmer MN, Normal';fill:#666666;stroke-width:0.420217" transform="scale(0.96535002,1.0358937)" aria-label="Guise" />
      <path d="m 65.30949,255.31669 q -2.801336,0 -5.183781,0.99487 -2.356264,0.99486 -4.084191,2.8537 -1.701746,1.85883 -2.670433,4.50308 -0.942505,2.61807 -0.942505,5.86448 0,3.27259 1.047228,5.89066 1.047229,2.61807 2.853698,4.4769 1.806469,1.85883 4.241275,2.8537 2.434807,0.99486 5.236143,0.99486 2.042095,0 3.69148,-0.54979 1.649385,-0.57598 2.958421,-1.59702 v -10.865 h -5.86448 v -1.85883 h 11.074442 v 13.64015 q -1.361397,0.73306 -2.748975,1.30904 -1.387578,0.54979 -2.984601,0.9425 -1.597024,0.36653 -3.508216,0.5498 -1.911192,0.20944 -4.345998,0.20944 -3.848565,0 -7.121154,-1.25667 -3.246408,-1.28286 -5.628853,-3.45586 -2.356264,-2.17299 -3.691481,-5.07905 -1.309035,-2.93224 -1.309035,-6.20483 0,-3.27259 1.256674,-6.25719 1.282855,-2.9846 3.586758,-5.23615 2.303902,-2.27772 5.497949,-3.61293 3.194047,-1.33522 7.042612,-1.33522 2.460987,0 4.555444,0.6807 2.094457,0.65452 3.796203,1.75411 1.727927,1.09959 3.063144,2.53953 1.335216,1.43993 2.303902,3.01078 l -2.251541,1.51848 q -1.937373,-3.77002 -4.345998,-5.52413 -2.408626,-1.75411 -5.524131,-1.75411 z m 23.196112,5.57649 v 17.01747 q 0,0.89014 0.418891,1.67556 0.418892,0.75924 1.125771,1.3614 0.706879,0.57597 1.649385,0.91632 0.968686,0.34035 2.068276,0.34035 0.706879,0 1.518481,-0.28799 0.811602,-0.31416 1.570843,-0.83778 0.759241,-0.52361 1.439939,-1.23049 0.680699,-0.70688 1.125771,-1.4923 v -17.46254 h 4.738711 v 23.90299 h -4.738711 v -4.4769 q -0.628337,1.02105 -1.570843,1.93737 -0.942505,0.91633 -2.068276,1.59703 -1.09959,0.6807 -2.277722,1.07341 -1.151951,0.39271 -2.19918,0.39271 -1.570843,0 -2.95842,-0.57598 -1.361397,-0.60215 -2.382445,-1.59702 -1.021048,-1.02105 -1.623204,-2.35627 -0.575976,-1.36139 -0.575976,-2.87987 v -17.01747 z m 23.745908,-12.22639 q 0.54979,0 1.04722,0.18326 0.52362,0.18327 0.89015,0.52362 0.36653,0.31417 0.57597,0.75924 0.23563,0.41889 0.23563,0.91632 0,0.47126 -0.23563,0.91633 -0.20944,0.41889 -0.57597,0.75924 -0.36653,0.31417 -0.89015,0.52361 -0.49743,0.18327 -1.04722,0.18327 -0.5498,0 -1.04723,-0.18327 -0.49744,-0.20944 -0.86397,-0.52361 -0.36653,-0.34035 -0.60215,-0.75924 -0.20945,-0.44507 -0.20945,-0.91633 0,-0.49743 0.20945,-0.91632 0.23562,-0.44507 0.60215,-0.75924 0.36653,-0.34035 0.86397,-0.52362 0.49743,-0.18326 1.04723,-0.18326 z m -2.30391,13.09036 3.32495,-1.3614 h 1.38758 v 24.40042 h -4.71253 z m 18.14324,21.91325 q 0.96868,0 1.78029,-0.28799 0.83778,-0.31416 1.41375,-0.8116 0.60216,-0.49743 0.94251,-1.12577 0.34035,-0.62834 0.34035,-1.30903 0,-1.09959 -0.5498,-1.9112 -0.54979,-0.8116 -1.46612,-1.46612 -0.89014,-0.65451 -2.04209,-1.17813 -1.15195,-0.54979 -2.35627,-1.09959 -1.17813,-0.57597 -2.33008,-1.23049 -1.15195,-0.65452 -2.06828,-1.51848 -0.89014,-0.86397 -1.43993,-1.98974 -0.5498,-1.12577 -0.5498,-2.67043 0,-1.43994 0.60216,-2.67043 0.62833,-1.2305 1.70174,-2.12064 1.09959,-0.89014 2.59189,-1.38758 1.4923,-0.49743 3.27259,-0.49743 1.17814,0 2.22536,0.18326 1.04723,0.15709 2.01592,0.62834 0.99487,0.47125 1.98973,1.3614 0.99487,0.86396 2.06828,2.27772 l -1.72793,1.54466 q -1.3614,-2.22536 -3.06314,-3.29877 -1.67557,-1.09959 -3.58676,-1.09959 -1.02105,0 -1.85883,0.26181 -0.83778,0.23563 -1.43994,0.6807 -0.60216,0.41889 -0.9425,0.99487 -0.31417,0.57597 -0.31417,1.23049 0,1.07341 0.60215,1.88501 0.60216,0.78542 1.57085,1.43994 0.99486,0.65452 2.22536,1.20431 1.25667,0.52362 2.56571,1.09959 1.30903,0.5498 2.53953,1.20431 1.25667,0.65452 2.22536,1.51849 0.99486,0.83778 1.59702,1.96355 0.60216,1.12577 0.60216,2.61807 0,1.51848 -0.57598,2.8537 -0.54979,1.30903 -1.70175,2.27772 -1.12577,0.96869 -2.85369,1.54466 -1.70175,0.5498 -4.00565,0.5498 -1.04723,0 -2.14682,-0.18327 -1.09959,-0.15708 -2.22536,-0.62833 -1.12577,-0.47126 -2.25154,-1.33522 -1.12577,-0.89015 -2.19918,-2.3039 l 1.93737,-1.75411 q 0.86396,1.23049 1.64938,2.09446 0.81161,0.86396 1.62321,1.41375 0.83778,0.5498 1.70175,0.81161 0.89014,0.23562 1.91119,0.23562 z m 24.53132,1.64939 q -2.4348,0 -4.55544,-0.89015 -2.12064,-0.91632 -3.71766,-2.48716 -1.59702,-1.57085 -2.51335,-3.6653 -0.91632,-2.12064 -0.91632,-4.52927 0,-2.87988 0.83778,-5.31468 0.83778,-2.46099 2.38244,-4.24128 1.54467,-1.78029 3.69148,-2.77515 2.173,-1.02105 4.84344,-1.02105 2.35626,0 4.29363,0.83778 1.96356,0.8116 3.35113,2.22536 1.41376,1.38758 2.19918,3.22023 0.78542,1.80647 0.78542,3.7962 h -17.82906 q 0,2.40863 0.60216,4.47691 0.62833,2.04209 1.7541,3.53439 1.12577,1.4923 2.67044,2.35627 1.54466,0.83778 3.40349,0.83778 1.54466,0 2.95842,-0.49744 1.43994,-0.49743 2.59189,-1.30903 1.17813,-0.83778 1.98973,-1.88501 0.81161,-1.04723 1.15196,-2.173 l 1.33521,0.60216 q -0.52361,1.83264 -1.64938,3.45585 -1.12577,1.6232 -2.67044,2.82752 -1.51848,1.20431 -3.32495,1.91119 -1.80647,0.70688 -3.6653,0.70688 z m 4.73871,-16.75566 q 0,-1.3614 -0.49743,-2.51335 -0.47125,-1.17813 -1.30904,-2.04209 -0.83778,-0.86397 -1.96355,-1.33522 -1.12577,-0.49743 -2.40862,-0.49743 -1.07341,0 -2.06828,0.49743 -0.96869,0.47125 -1.72793,1.33522 -0.75924,0.86396 -1.28285,2.04209 -0.49744,1.15195 -0.60216,2.51335 z" id="text1-0" style="font-size:53.6181px;font-family:'Khmer MN';-inkscape-font-specification:'Khmer MN, Normal';fill:#e6e6e6;stroke-width:0.420217" transform="scale(0.96535002,1.0358937)" aria-label="Guise" />
    </g>
  </g>
</svg>
